<svg xmlns="http://www.w3.org/2000/svg" viewBox="0 0 696.65 380.55"><defs><style>.cls-1,.cls-16{fill:#fff;}.cls-2{fill:#a0c6f4;}.cls-10,.cls-18,.cls-20,.cls-21,.cls-22,.cls-3{fill:none;}.cls-16,.cls-18,.cls-3{stroke:#2a1e17;}.cls-10,.cls-16,.cls-18,.cls-20,.cls-22,.cls-3{stroke-linecap:round;stroke-linejoin:round;}.cls-4{fill:#2a1e17;}.cls-5{fill:#f9865f;}.cls-6{fill:#2a1e33;}.cls-7{fill:#7595ec;}.cls-8{fill:#ff8a66;}.cls-9{fill:#fff7c9;}.cls-10{stroke:#2a1e33;}.cls-11{fill:#ff6d66;}.cls-12{fill:#fad8b0;}.cls-13{fill:#c6cbcb;}.cls-14{fill:#fff7dc;}.cls-15{fill:#ffe1c0;}.cls-17{fill:#91ba83;}.cls-18{stroke-width:0.67px;}.cls-19{fill:#96bd89;}.cls-20{stroke:#ff6d66;}.cls-21{stroke:#fad8b0;stroke-miterlimit:10;}.cls-22{stroke:#a0c6f4;}</style></defs><title>Asset 1</title><g id="Layer_2" data-name="Layer 2"><g id="OBJECTS"><path class="cls-1" d="M518.94,211c-32.4-30.37-70.36-38.21-80.39-39.81,6.76-18.23,17.2-45.33,19.8-49.34a37.47,37.47,0,0,1,5.07-.29c7.37,0,23.15,1.53,46,11.8,33,14.83,41.78,31.51,43.51,35.6Z" transform="translate(-194.29 -108.44)"></path><path class="cls-2" d="M463.42,123.52c7.21,0,22.67,1.51,45.15,11.63,29.81,13.41,39.45,28.41,42,33.48L518.73,208a161.08,161.08,0,0,0-54.08-32.14,149.49,149.49,0,0,0-23.38-6.33c7.47-20.07,15.59-40.72,18.32-45.89.89-.08,2.17-.16,3.83-.16m0-4a33.83,33.83,0,0,0-6.07.42c-2.34.78-21.54,52.84-21.54,52.84s45.57,4.65,83.32,41.12l36-44.62s-6-20.26-45-37.78c-22.83-10.27-38.73-12-46.79-12Z" transform="translate(-194.29 -108.44)"></path><path class="cls-3" d="M442.5,176.83s44.81,4.52,72.41,29.87" transform="translate(-194.29 -108.44)"></path><polygon class="cls-2" points="286.9 66.2 303.62 33.7 320.8 67.59 286.9 66.2"></polygon><polygon class="cls-3" points="290.15 65.74 306.87 33.24 324.05 67.13 290.15 65.74"></polygon><path class="cls-3" d="M468.75,117.54s50.23,4.53,81.46,41.64" transform="translate(-194.29 -108.44)"></path><path class="cls-4" d="M494.42,261.56c-2.76-2-4.57-3.39-4.57-3.39.76-1,12.85-13.89,19.85-24.27C509.7,233.9,495.55,262.39,494.42,261.56Z" transform="translate(-194.29 -108.44)"></path><path class="cls-3" d="M323.13,167.69c1.35,2.25,1.95,1.35,5.84,1.05s9.42,2.54,11.36,7.33,1.35,5.53.3,6.13-8.52,1.5-8.82,3" transform="translate(-194.29 -108.44)"></path><polygon class="cls-5" points="229.62 302.71 226.13 296.82 213.77 317.43 217.01 319.93 229.62 302.71"></polygon><path class="cls-5" d="M341.81,360.05s-6.41-10.41-3.66-15.52l20.44,2.19Z" transform="translate(-194.29 -108.44)"></path><path d="M341.81,360.05l1.22,2.82-3.77,14.72a5,5,0,0,0,1.59,5.07h0L359.54,355a6.44,6.44,0,0,0-1-8.31l-4.18-3.88Z" transform="translate(-194.29 -108.44)"></path><path class="cls-6" d="M331.81,185.19c5.85-.14,13.27-.51,11.78-5s-7-15.57-19.65-12.23c0,0-4.45,3.7,1.11,10.38S331.81,185.19,331.81,185.19Z" transform="translate(-194.29 -108.44)"></path><path class="cls-7" d="M361.43,347s-10-29.5-1.53-42.45c7-10.69,29.77,6.69,32.89,9L409.1,284.1s-3.76-5.28-13-10.45-47.43-20.65-65.38,7.67c-6.63,10.46-6.73,55.37,6,72.58Z" transform="translate(-194.29 -108.44)"></path><path class="cls-3" d="M361.43,347s-10-29.5-1.53-42.45c7-10.69,29.77,6.69,32.89,9" transform="translate(-194.29 -108.44)"></path><path class="cls-7" d="M409.1,284.1c-7.42,7.81-29.41,45.85-34.35,64-6.62,24.32-4.13,44.49,32.23,84l17.57-25.6s-12.36-18.76-10.05-36.45c3.34-25.59,21.55-50.4,30.76-66.14Z" transform="translate(-194.29 -108.44)"></path><polygon class="cls-4" points="217.61 178.96 246.84 201.91 255.58 188.63 217.61 178.96"></polygon><path class="cls-8" d="M579.81,263.28q6.84,1.47,10.42,5.21c2.39,2.5,1.31,3.8.44,4.56s-4.24-.11-7.17-2.71S579.81,263.28,579.81,263.28Z" transform="translate(-194.29 -108.44)"></path><path class="cls-5" d="M489.85,258.17c.76-1,12.85-13.89,19.85-24.27,0,0,21.16,23.7,23.45,24.47.85.28,6,.21,12.48.15,10.88-.12,25.35-.23,28.55,1.38,5.1,2.54,8.16,3.82,9.43,7.39s1.78,5.9-1.27,6.11c-3.57.26-5.86-4.33-5.86-4.33A71.81,71.81,0,0,1,566,273.66s-27.11,10.52-45.23,5.43C515.85,277.7,489.85,258.17,489.85,258.17Z" transform="translate(-194.29 -108.44)"></path><path class="cls-5" d="M325.52,163.5c-2.32.89-3.73,1.95-2.39,4.19s1.95,1.35,5.84,1.05,9.42,2.54,11.36,7.33,1.35,5.53.3,6.13-8.52,1.5-8.82,3,3,5.91,9.91,5.62l1.64-.3s14.47,14.13,16.57,16.22,17.48,12.52,26,14.64c6.45,1.61,19.5-.46,27.35-2,3.81-.75,6.39-1.36,6.39-1.36s-5.89-10.61-7.09-26.91c0,0-14.08,2.26-23.44,4.32,0,0-21.84-12.18-32.46-17.57,0,0-9.28-11.36-13.61-12.86S328.67,162.31,325.52,163.5Z" transform="translate(-194.29 -108.44)"></path><path class="cls-4" d="M413.24,219.38c3.81-.75,6.39-1.36,6.39-1.36s-7.12-9-8.32-25.28c0,0-3.22,3.47-2.22,12.7C410.35,217.05,413.24,219.38,413.24,219.38Z" transform="translate(-194.29 -108.44)"></path><path class="cls-9" d="M411,190.91s.2,19.93,5.54,28.24l1.91-.77S393.26,247.81,385.12,267c-1.33,3.15,52.23,37.36,60.14,36.88,0,0,26.1-39.83,35-51.64l9.6,7.44s18.81-19.06,19.82-25.82c0,0-18.17-22.11-33-28.59s-28.15-17.56-44.12-17.26C418.72,188.31,411,190.91,411,190.91Z" transform="translate(-194.29 -108.44)"></path><polygon class="cls-4" points="295.59 151.28 286 143.84 287.53 139.68 295.59 151.28"></polygon><path class="cls-5" d="M504.47,180.93c-1.68,5.23-6.53,20.34-11.94,22.2s-11-.47-11-.47l-5.77,2.94c-.64,1.93-5.19,3.59-11.06,3.82-4.35.17-7-5.42-5.71-9.46.59-1.86,2.8-11,2.8-11s4.66-17.16,8.95-20.7,8.32-7.06,19.78-2.43C508,172.91,504.47,180.93,504.47,180.93Z" transform="translate(-194.29 -108.44)"></path><path class="cls-6" d="M469.7,181.68c-.77,3.2-4.1,9.62-6.28,8.46s-2.95-4.1-1.42-9.75,2.83-18.47,7.19-20.78,6.29.38,6.29.38-1.93-9.36,3.72-10.65c0,0,1.92-.89,1.15,5.52a8.59,8.59,0,0,1,9.24-5.13c7.06.77,9.49,10.65,9.49,10.65a3.57,3.57,0,0,1,3.72-2.7c3.21,0,8.09,4.75,6.93,10,0,0,8.21-2.57,12.58,4s3.84,13.73-6.68,16.55c-11,2.95-10.9-9.88-12.57-11.55s-3.46-3.59-9.62-1.28-12.58-4.49-12.58-4.49-1,8.21-2.05,9-3.08,1.8-2.56-2,1.15-3.47.77-4.49-2.13-4.27-5.78-1.41C467.14,175.13,469.7,181.68,469.7,181.68Z" transform="translate(-194.29 -108.44)"></path><path class="cls-10" d="M471.45,183.11c-2.45-2.05-4.14-5.68-2-9.3s5.68-4.11,6.75-2.74,1.5,3.68.48,6.42" transform="translate(-194.29 -108.44)"></path><path d="M411.3,428.37l1.22,2.81-3.77,14.72a5,5,0,0,0,1.59,5.07h0L429,423.34a6.44,6.44,0,0,0-.95-8.31l-4.18-3.88Z" transform="translate(-194.29 -108.44)"></path><path class="cls-10" d="M475.48,160s-1.43-4.65-5.72-5.88" transform="translate(-194.29 -108.44)"></path><line class="cls-3" x1="190.25" y1="157.19" x2="242.03" y2="84.86"></line><path class="cls-3" d="M457.66,198.36c-1.86,2.43-2.71,12.87,5.87,13.54a23.22,23.22,0,0,0,14.07-3.09" transform="translate(-194.29 -108.44)"></path><path class="cls-3" d="M343,165s5.92,7.83,6.85,10.62" transform="translate(-194.29 -108.44)"></path><path class="cls-3" d="M564.65,270s4,3.25,11.83-1c2.85-1.53.82-5.14-2.8-4.24s-7.9-.45-7.9-.45" transform="translate(-194.29 -108.44)"></path><path class="cls-3" d="M581.17,263.73s3.79,4.43,3.69,7.06" transform="translate(-194.29 -108.44)"></path><path class="cls-3" d="M525.33,263.25s3.43-4.57,7.82-4.88" transform="translate(-194.29 -108.44)"></path><path class="cls-3" d="M380.68,202.81s2-6.24,8.42-7.38" transform="translate(-194.29 -108.44)"></path><path class="cls-3" d="M398.07,297.49l-7.66,14.64s-25.24,42.71-16.67,70.31" transform="translate(-194.29 -108.44)"></path><path class="cls-3" d="M420.43,346.49l24.83-42.57s32.55-47.21,35.88-53.87l11.49-21.25" transform="translate(-194.29 -108.44)"></path><path class="cls-3" d="M388,270.17s44.17,32.2,57.26,33.75" transform="translate(-194.29 -108.44)"></path><path class="cls-3" d="M411,190.91s0,20.21,5.41,28.49" transform="translate(-194.29 -108.44)"></path><path class="cls-3" d="M508.28,230.7c-1.38,8.32-19.82,25.81-19.82,25.81" transform="translate(-194.29 -108.44)"></path><circle class="cls-4" cx="176.44" cy="223.36" r="2.62"></circle><polygon class="cls-3" points="422.48 279.71 421.03 269.68 429.58 275.37 425.11 276.34 422.48 279.71"></polygon><path class="cls-3" d="M333,216.92c-16.21-14.31-43,21.36,55,134.9,56.55,65.5,101,71.37,107,48.58,10.79-40.88-28.2-51.21-13.69-35.2,21.1,23.28,81.12,28.2,125.84,6.48,44.13-21.44,17-54.73,14.26-56.68" transform="translate(-194.29 -108.44)"></path><circle class="cls-4" cx="413.63" cy="263.03" r="2.62"></circle><line class="cls-3" x1="375.47" y1="284.44" x2="453.2" y2="240.62"></line><circle class="cls-4" cx="140.35" cy="110.6" r="2.62"></circle><circle class="cls-11" cx="207.22" cy="56.45" r="5.63"></circle><path class="cls-2" d="M299.42,122a2.48,2.48,0,1,0,2.47,2.48,2.48,2.48,0,0,0-2.47-2.48Z" transform="translate(-194.29 -108.44)"></path><circle class="cls-12" cx="436.53" cy="318.25" r="2.47"></circle><path class="cls-6" d="M586.62,315,560,302.52a2.76,2.76,0,0,1,.06-5l49.46-21.76a2.72,2.72,0,0,1,2.2,0l34,14.58Z" transform="translate(-194.29 -108.44)"></path><path class="cls-13" d="M585,274c.06,11,1.64,41,1.64,41l59.12-24.69-1.33-41.75a3.59,3.59,0,0,0-5.07-3.16l-50.9,23.2A5.87,5.87,0,0,0,585,274Z" transform="translate(-194.29 -108.44)"></path><path class="cls-3" d="M586.62,315l59.12-24.69-1.33-41.75s-.39-4.56-5.07-3.16" transform="translate(-194.29 -108.44)"></path><line class="cls-3" x1="420.95" y1="176.54" x2="424.94" y2="167.11"></line><line class="cls-3" x1="424.94" y1="176.54" x2="428.93" y2="167.11"></line><circle class="cls-11" cx="115.79" cy="276.97" r="2.47"></circle><circle class="cls-11" cx="324.32" cy="289.23" r="3.44"></circle><path class="cls-14" d="M335.71,422.08a73.37,73.37,0,0,0,31.23,6.7,1.42,1.42,0,0,1,1.4,1.59l-2.16,17.12A1.41,1.41,0,0,1,365,448.7c-4.38.83-22,3.25-35.22-7.95a1.4,1.4,0,0,1-.44-1.43L333.74,423A1.41,1.41,0,0,1,335.71,422.08Z" transform="translate(-194.29 -108.44)"></path><path class="cls-3" d="M337.26,427.12s7.63,10.71,10.34,12.25,17.4-7.22,17.4-7.22" transform="translate(-194.29 -108.44)"></path><line class="cls-3" x1="160.51" y1="329.43" x2="168.52" y2="337.66"></line><line class="cls-3" x1="149.38" y1="327.84" x2="140.01" y2="330.39"></line><rect class="cls-15" x="377.72" y="111.05" width="8.95" height="8.95"></rect><polygon class="cls-2" points="378.93 231.74 381.59 236.35 384.25 240.96 378.93 240.96 373.62 240.96 376.27 236.35 378.93 231.74"></polygon><path class="cls-3" d="M358.16,136.11l.7-20.92c-.08-2,.72-2.57,1.92-2.84,5.68-1.25,23-5.1,41.74.45,2.42.72,2.34,2,2.31,3.16l-.68,19.94a2.69,2.69,0,0,1-3.28,2.27,146,146,0,0,0-20.52-1,116.44,116.44,0,0,0-19.68,1.59C358.81,139.13,358.11,137.74,358.16,136.11Z" transform="translate(-194.29 -108.44)"></path><path class="cls-3" d="M364.48,133.05l10.94-12.8,12.1,11.95C383.35,130.84,364.48,133.05,364.48,133.05Z" transform="translate(-194.29 -108.44)"></path><polyline class="cls-3" points="187.83 17.74 196.67 10.66 204.12 15.98 204.4 24.29 193.23 23.75"></polyline><ellipse class="cls-3" cx="367.1" cy="119.09" rx="1.83" ry="2.15" transform="translate(17.4 363.92) rotate(-84.23)"></ellipse><path class="cls-3" d="M569.56,407.81l7.33,13.54c.77,1.21.5,1.9-.16,2.52-3.15,2.91-12.68,11.77-26.68,15.23-1.81.45-2.24-.4-2.64-1.15l-7-12.91a2,2,0,0,1,1.25-2.67,105.92,105.92,0,0,0,13.39-7A85.41,85.41,0,0,0,567,407.05C568,406.13,569,406.75,569.56,407.81Z" transform="translate(-194.29 -108.44)"></path><path class="cls-3" d="M566.68,412.1l-2.19,12.19-12.12-3.09C555.52,420.52,566.68,412.1,566.68,412.1Z" transform="translate(-194.29 -108.44)"></path><polyline class="cls-3" points="363.75 314.58 360.76 322.36 354.06 321.75 350.79 316.57 358.08 312.76"></polyline><ellipse class="cls-3" cx="570.2" cy="421.94" rx="1.58" ry="1.34" transform="matrix(0.91, -0.42, 0.42, 0.91, -318.09, 166.79)"></ellipse><path class="cls-16" d="M533.86,176.63l29.79,22.8a1.47,1.47,0,0,0,2.08-.29l4.5-6.1a1.47,1.47,0,0,0-.26-2l-29.38-23.51a1.48,1.48,0,0,0-2.11.29l-4.92,6.8A1.47,1.47,0,0,0,533.86,176.63Z" transform="translate(-194.29 -108.44)"></path><polygon class="cls-11" points="341.78 67.17 349 72.24 353.27 67.15 346.04 61.12 341.78 67.17"></polygon><polygon class="cls-12" points="351.72 74.22 358.96 79.96 362.84 75.19 355.55 69.28 351.72 74.22"></polygon><polygon class="cls-2" points="361.39 82.16 368.62 87.23 372.06 82.81 365.22 77.08 361.39 82.16"></polygon><path class="cls-16" d="M593.31,144.75l6.79,57.05a2.25,2.25,0,0,0,2.54,2l11.5-1.57a2.27,2.27,0,0,0,1.94-2.46L610.5,142.4a2.25,2.25,0,0,0-2.57-2l-12.71,1.86A2.25,2.25,0,0,0,593.31,144.75Z" transform="translate(-194.29 -108.44)"></path><polygon class="cls-11" points="402.5 37.64 404.65 50.98 414.79 50.23 413.68 35.86 402.5 37.64"></polygon><polygon class="cls-17" points="405.38 56.08 406.81 70.15 416.19 69.31 414.89 55.01 405.38 56.08"></polygon><polygon class="cls-12" points="406.99 75.18 409.14 88.52 417.67 87.58 416.64 73.95 406.99 75.18"></polygon><path class="cls-16" d="M578.49,156.89l18.8,55.27a1.79,1.79,0,0,0,2.3,1.11L611.37,209a1.79,1.79,0,0,0,1.1-2.23L594.82,151a1.79,1.79,0,0,0-2.34-1.14l-12.92,4.79A1.77,1.77,0,0,0,578.49,156.89Z" transform="translate(-194.29 -108.44)"></path><polygon class="cls-2" points="388.02 49.46 392.9 62.07 402.66 59.22 398.59 45.39 388.02 49.46"></polygon><polygon class="cls-5" points="394.68 66.9 399 80.37 408 77.59 403.76 63.87 394.68 66.9"></polygon><polygon class="cls-12" points="400.22 85.25 405.1 97.85 413.25 95.15 409.41 82.03 400.22 85.25"></polygon><rect class="cls-7" x="142.08" y="118.26" width="105.91" height="23.81" rx="5.48"></rect><rect class="cls-1" x="153.36" y="125.27" width="55.38" height="3.62" rx="1.81"></rect><line class="cls-3" x1="153.88" y1="133.59" x2="241.87" y2="133.59"></line><path class="cls-17" d="M300,182.27h2.22a1.7,1.7,0,0,1,1.7,1.7v3.32a1.7,1.7,0,0,1-1.7,1.7H300a0,0,0,0,1,0,0v-6.72A0,0,0,0,1,300,182.27Z" transform="translate(41.09 -270.98) rotate(47.59)"></path><rect class="cls-3" x="290.15" y="175.41" width="12.43" height="8.57" rx="0.98" transform="translate(169.27 411.26) rotate(-132.41)"></rect><rect class="cls-11" x="79.13" y="105.4" width="8.87" height="8.1"></rect><polyline class="cls-3" points="79.13 100.19 79.13 105.4 73.83 105.4"></polyline><rect class="cls-12" x="371.38" y="13.93" width="8.87" height="8.1"></rect><polyline class="cls-3" points="371.38 8.72 371.38 13.93 366.08 13.93"></polyline><path class="cls-3" d="M325.58,172.44c-92-38.12-162.76,35.3,10.6,147.72,13.65,8.86,34.58,12,34.58,12" transform="translate(-194.29 -108.44)"></path><circle class="cls-4" cx="46.71" cy="66.56" r="2.62"></circle><polygon class="cls-3" points="30.03 52.17 32.9 49.41 39.49 53.19 42.81 63.42 32.68 59.18 30.03 52.17"></polygon><polygon class="cls-3" points="32.9 49.41 30.03 52.17 28.42 50.22 31.17 47.58 32.9 49.41"></polygon><line class="cls-3" x1="42.81" y1="63.42" x2="36.22" y2="56.19"></line><path class="cls-16" d="M253,355.44l7.14,36.84a1.49,1.49,0,0,0,1.76,1.16l7.41-1.58a1.46,1.46,0,0,0,1.14-1.69l-6.37-37.08a1.47,1.47,0,0,0-1.77-1.18l-8.19,1.82A1.45,1.45,0,0,0,253,355.44Z" transform="translate(-194.29 -108.44)"></path><polygon class="cls-11" points="61.08 247.7 63.12 256.29 69.68 255.32 68.28 246.01 61.08 247.7"></polygon><polygon class="cls-12" points="63.84 259.58 65.44 268.67 71.51 267.68 69.98 258.42 63.84 259.58"></polygon><polygon class="cls-2" points="65.8 271.94 67.83 280.53 73.34 279.5 72.03 270.68 65.8 271.94"></polygon><polygon class="cls-3" points="263.44 339.31 293.64 331.23 294.8 334.5 264.25 342.43 263.44 339.31"></polygon><line class="cls-3" x1="259.24" y1="335.09" x2="260.12" y2="337.83"></line><line class="cls-3" x1="258.39" y1="336.88" x2="260.94" y2="336"></line><line class="cls-3" x1="257.78" y1="345.56" x2="259.42" y2="350.74"></line><line class="cls-3" x1="256.38" y1="348.84" x2="260.92" y2="347.4"></line><line class="cls-3" x1="250.87" y1="337.02" x2="253.02" y2="343.88"></line><line class="cls-3" x1="248.74" y1="341.29" x2="255.1" y2="339.26"></line><polygon class="cls-18" points="43.17 11.15 24.06 2.52 24.85 0.34 44.08 9.19 43.17 11.15"></polygon><line class="cls-18" x1="43.56" y1="15.13" x2="44.27" y2="13.33"></line><line class="cls-18" x1="44.76" y1="14.56" x2="43.06" y2="13.93"></line><line class="cls-18" x1="48.76" y1="10.31" x2="50.11" y2="6.93"></line><line class="cls-18" x1="50.88" y1="9.2" x2="47.92" y2="8.02"></line><line class="cls-18" x1="48.72" y1="17.68" x2="50.52" y2="13.21"></line><line class="cls-18" x1="51.64" y1="16.37" x2="47.48" y2="14.72"></line><path class="cls-12" d="M308.9,281c-13.48-9.7-26.72-24.78-20.91-40.27,0,0,9.29-6.19,24,1.55l14.72,7.74Z" transform="translate(-194.29 -108.44)"></path><path class="cls-1" d="M302.79,345.67c-6.06-2.87-32-16.35-36.56-39.38-4-19.89,11.24-46.72,18.86-58.57-.49,15.73,15.31,29,22.93,34.53a81.52,81.52,0,0,0,21.23,11.22Z" transform="translate(-194.29 -108.44)"></path><path class="cls-12" d="M283.93,252.4c1.66,10.46,9.64,21.29,23.21,31.07a81.33,81.33,0,0,0,20,10.81l-25,49.4c-7.63-3.8-30.21-16.66-34.42-37.68-3.49-17.47,8.36-40.64,16.23-53.6M288,240.77s-28.65,38.72-23.23,65.82,38.72,41,38.72,41l27.87-55c-8.71-3.19-14.37-5.79-22.45-11.61-13.48-9.7-26.72-24.78-20.91-40.27Z" transform="translate(-194.29 -108.44)"></path><path class="cls-3" d="M280.46,263.27a33.22,33.22,0,0,0,17.22,23.89" transform="translate(-194.29 -108.44)"></path><line class="cls-3" x1="111.72" y1="184.27" x2="127.27" y2="192.6"></line><path class="cls-3" d="M282.68,285.49s5,11.11,21.11,18.33" transform="translate(-194.29 -108.44)"></path><path class="cls-3" d="M269.9,287.16s.56,11.66,8.34,15.55" transform="translate(-194.29 -108.44)"></path><path class="cls-3" d="M287.68,246.61s-1.44,15,21.22,34.43" transform="translate(-194.29 -108.44)"></path><path class="cls-3" d="M296,249.39s7.22-.56,17.77,7.22" transform="translate(-194.29 -108.44)"></path><path class="cls-3" d="M262.05,297.21c-.46,7.43.47,34.36,39.47,51.54" transform="translate(-194.29 -108.44)"></path><path class="cls-17" d="M511.08,282.23l-16.54,33.15s11.22,4.13,2.45,17c0,0,20.74,8.6,34.31-13.73S511.08,282.23,511.08,282.23Z" transform="translate(-194.29 -108.44)"></path><path class="cls-1" d="M473.23,383.55c-8.38,0-17.21-3.42-26.28-10.17l30.94-51.26,18.41,11.59.12.05a28.44,28.44,0,0,0,10.05,1.74h0a27.75,27.75,0,0,0,16.23-5.13l-22.62,38.7C500,369.14,490.29,383.55,473.23,383.55Z" transform="translate(-194.29 -108.44)"></path><path class="cls-19" d="M478.39,324.2l17,10.71.22.14.23.09A30,30,0,0,0,506.47,337a29.53,29.53,0,0,0,12.1-2.54l-19.73,33.76c-.66.95-9.91,13.83-25.61,13.83-7.71,0-15.87-3.05-24.29-9.07l29.45-48.78m52.91-5.56C523.63,331.26,513.68,334,506.47,334a27.08,27.08,0,0,1-9.48-1.63L477.4,320,445,373.76c10.86,8.38,20.33,11.29,28.26,11.29,18.12,0,28.15-15.22,28.15-15.22l29.92-51.19Z" transform="translate(-194.29 -108.44)"></path><path class="cls-3" d="M494.54,315.38s12.34,4.36,2.45,17" transform="translate(-194.29 -108.44)"></path><path class="cls-3" d="M477,318.88s16.8,15.4,26.11,15.3,20.21-2.32,26.64-13.42" transform="translate(-194.29 -108.44)"></path><path class="cls-3" d="M479.08,338.8s11.53,10.24,24.43,6.95" transform="translate(-194.29 -108.44)"></path><path class="cls-3" d="M491.19,354.11s6.06,4.53,14.52.24" transform="translate(-194.29 -108.44)"></path><path class="cls-3" d="M463.35,360.42s14,13.89,35.95,4.73" transform="translate(-194.29 -108.44)"></path><path class="cls-3" d="M471,346.87s5.7,4.08,9.27,5.38" transform="translate(-194.29 -108.44)"></path><path class="cls-3" d="M513.93,291.85s12.74,4.17,14.27,21" transform="translate(-194.29 -108.44)"></path><path class="cls-3" d="M520.33,312.64s5.87,9.09-4.05,18.17" transform="translate(-194.29 -108.44)"></path><path class="cls-3" d="M446.15,376.3s32,27.42,55.25-4.64" transform="translate(-194.29 -108.44)"></path><line class="cls-20" x1="20.78" y1="163.44" x2="28.24" y2="163.44"></line><line class="cls-20" x1="436.53" y1="73.67" x2="443.99" y2="73.67"></line><line class="cls-21" x1="236.38" y1="22.47" x2="243.85" y2="22.47"></line><line class="cls-21" x1="450.78" y1="112.38" x2="458.12" y2="113.7"></line><line class="cls-22" x1="157.6" y1="298.61" x2="165.07" y2="298.61"></line><circle class="cls-17" cx="466.86" cy="205.57" r="2.47"></circle><circle class="cls-17" cx="2.47" cy="86.95" r="2.47"></circle><circle class="cls-4" cx="544.61" cy="377.93" r="2.62"></circle><circle class="cls-4" cx="694.03" cy="289.39" r="2.62"></circle></g></g></svg>