<svg xmlns="http://www.w3.org/2000/svg" width="68" height="65" viewBox="0 0 68 65" fill="none"><path d="M6.8 0C3.026 0 0 3.04474 0 6.84211V41.0526C0 42.8673 0.716426 44.6076 1.99167 45.8907C3.26692 47.1739 4.99653 47.8947 6.8 47.8947H34V65L44.2 54.7368L54.4 65V47.8947H61.2C63.0035 47.8947 64.7331 47.1739 66.0083 45.8907C67.2836 44.6076 68 42.8673 68 41.0526V6.84211C68 5.02747 67.2836 3.28715 66.0083 2.00401C64.7331 0.720862 63.0035 0 61.2 0H6.8ZM34 6.84211L44.2 13.6842L54.4 6.84211V18.8158L64.6 23.9474L54.4 29.0789V41.0526L44.2 34.2105L34 41.0526V29.0789L23.8 23.9474L34 18.8158V6.84211ZM6.8 6.84211H23.8V13.6842H6.8V6.84211ZM6.8 20.5263H17V27.3684H6.8V20.5263ZM6.8 34.2105H23.8V41.0526H6.8V34.2105Z" fill="url(#paint0_linear_244_3915)"></path><defs><linearGradient id="paint0_linear_244_3915" x1="-24.0267" y1="-50.7" x2="127.239" y2="-6.80372" gradientUnits="userSpaceOnUse"><stop stop-color="#3796F4"></stop><stop offset="1" stop-color="#47E2E9"></stop></linearGradient></defs></svg>