<svg xmlns="http://www.w3.org/2000/svg" width="470" height="352" viewBox="0 0 470 352" fill="none"><path d="M324.65 102.56C292.25 72.1903 254.29 64.3503 244.26 62.7503C251.02 44.5203 261.46 17.4203 264.06 13.4103C265.741 13.1991 267.435 13.1022 269.13 13.1203C276.5 13.1203 292.28 14.6503 315.13 24.9203C348.13 39.7503 356.91 56.4303 358.64 60.5203L324.65 102.56Z" fill="white"></path><path d="M269.13 15.0795C276.34 15.0795 291.8 16.5895 314.28 26.7095C344.09 40.1195 353.73 55.1195 356.28 60.1895L324.44 99.5595C308.7 85.396 290.323 74.4744 270.36 67.4195C262.75 64.6806 254.931 62.5636 246.98 61.0895C254.45 41.0195 262.57 20.3695 265.3 15.1995C266.19 15.1195 267.47 15.0395 269.13 15.0395M269.13 11.0395C267.098 10.9969 265.066 11.1375 263.06 11.4595C260.72 12.2395 241.52 64.2995 241.52 64.2995C241.52 64.2995 287.09 68.9495 324.84 105.42L360.84 60.7995C360.84 60.7995 354.84 40.5395 315.84 23.0195C293.01 12.7495 277.11 11.0195 269.05 11.0195L269.13 11.0395Z" fill="#A0C6F4"></path><path d="M248.211 68.3896C248.211 68.3896 293.021 72.9096 320.621 98.2596" stroke="#2A1E17" stroke-linecap="round" stroke-linejoin="round"></path><path d="M286.9 66.2002L303.62 33.7002L320.8 67.5902L286.9 66.2002Z" fill="#A0C6F4"></path><path d="M290.15 65.7402L306.87 33.2402L324.05 67.1302L290.15 65.7402Z" stroke="#2A1E17" stroke-linecap="round" stroke-linejoin="round"></path><path d="M274.461 9.09961C274.461 9.09961 324.691 13.6296 355.921 50.7396" stroke="#2A1E17" stroke-linecap="round" stroke-linejoin="round"></path><path d="M300.131 153.12C297.371 151.12 295.561 149.73 295.561 149.73C296.321 148.73 308.411 135.84 315.411 125.46C315.411 125.46 301.261 153.95 300.131 153.12Z" fill="#2A1E17"></path><path d="M128.84 59.25C130.19 61.5 130.79 60.6 134.68 60.3C138.57 60 144.1 62.84 146.04 67.63C147.98 72.42 147.39 73.16 146.34 73.76C145.29 74.36 137.82 75.26 137.52 76.76" stroke="#2A1E17" stroke-linecap="round" stroke-linejoin="round"></path><path d="M229.62 302.71L226.13 296.82L213.77 317.43L217.01 319.93L229.62 302.71Z" fill="#F9865F"></path><path d="M147.52 251.61C147.52 251.61 141.109 241.2 143.859 236.09L164.3 238.28L147.52 251.61Z" fill="#F9865F"></path><path d="M147.52 251.61L148.74 254.43L144.97 269.15C144.732 270.059 144.755 271.017 145.036 271.914C145.317 272.811 145.845 273.61 146.56 274.22L165.25 246.56C166.101 245.283 166.467 243.744 166.284 242.221C166.101 240.697 165.379 239.289 164.25 238.25L160.07 234.37L147.52 251.61Z" fill="black"></path><path d="M137.521 76.7502C143.371 76.6102 150.791 76.2402 149.301 71.7502C147.811 67.2602 142.301 56.1802 129.651 59.5202C129.651 59.5202 125.201 63.2202 130.761 69.9002C136.321 76.5802 137.521 76.7502 137.521 76.7502Z" fill="#2A1E33"></path><path d="M167.139 238.56C167.139 238.56 157.14 209.06 165.61 196.11C172.61 185.42 195.38 202.8 198.5 205.11L214.81 175.66C214.81 175.66 211.05 170.38 201.81 165.21C192.57 160.04 154.38 144.56 136.43 172.88C129.8 183.34 129.7 228.25 142.43 245.46L167.139 238.56Z" fill="#7595EC"></path><path d="M167.14 238.56C167.14 238.56 157.14 209.06 165.61 196.11C172.61 185.42 195.38 202.8 198.5 205.11" stroke="#2A1E17" stroke-linecap="round" stroke-linejoin="round"></path><path d="M214.809 175.66C207.389 183.47 185.399 221.51 180.459 239.66C173.839 263.98 176.329 284.15 212.689 323.66L230.259 298.06C230.259 298.06 217.899 279.3 220.209 261.61C223.549 236.02 241.759 211.21 250.969 195.47L214.809 175.66Z" fill="#7595EC"></path><path d="M217.609 178.96L246.839 201.91L255.579 188.63L217.609 178.96Z" fill="#2A1E17"></path><path d="M385.52 154.84C390.08 155.82 393.553 157.557 395.94 160.05C398.33 162.55 397.25 163.85 396.38 164.61C395.51 165.37 392.14 164.5 389.21 161.9C386.28 159.3 385.52 154.84 385.52 154.84Z" fill="#FF8A66"></path><path d="M295.561 149.73C296.321 148.73 308.411 135.84 315.411 125.46C315.411 125.46 336.571 149.16 338.861 149.93C339.711 150.21 344.861 150.14 351.341 150.08C362.221 149.96 376.691 149.85 379.891 151.46C384.991 154 388.051 155.28 389.321 158.85C390.591 162.42 391.101 164.75 388.051 164.96C384.481 165.22 382.191 160.63 382.191 160.63C378.825 162.436 375.32 163.971 371.711 165.22C371.711 165.22 344.601 175.74 326.481 170.65C321.561 169.26 295.561 149.73 295.561 149.73Z" fill="#F9865F"></path><path d="M131.231 55.0596C128.911 55.9496 127.501 57.0096 128.841 59.2496C130.181 61.4896 130.791 60.5996 134.681 60.2996C138.571 59.9996 144.101 62.8396 146.041 67.6296C147.981 72.4196 147.391 73.1596 146.341 73.7596C145.291 74.3596 137.821 75.2596 137.521 76.7596C137.221 78.2596 140.521 82.6697 147.431 82.3797L149.071 82.0796C149.071 82.0796 163.541 96.2096 165.641 98.2996C167.741 100.39 183.121 110.82 191.641 112.94C198.091 114.55 211.141 112.48 218.991 110.94C222.801 110.19 225.381 109.58 225.381 109.58C225.381 109.58 219.491 98.9696 218.291 82.6696C218.291 82.6696 204.211 84.9296 194.851 86.9896C194.851 86.9896 173.011 74.8096 162.391 69.4196C162.391 69.4196 153.111 58.0596 148.781 56.5596C144.451 55.0596 134.381 53.8696 131.231 55.0596Z" fill="#F9865F"></path><path d="M218.95 110.94C222.76 110.19 225.34 109.58 225.34 109.58C225.34 109.58 218.22 100.58 217.02 84.2998C217.02 84.2998 213.8 87.7698 214.8 96.9998C216.06 108.61 218.95 110.94 218.95 110.94Z" fill="#2A1E17"></path><path d="M216.709 82.4695C216.709 82.4695 216.909 102.399 222.249 110.709L224.159 109.939C224.159 109.939 198.969 139.369 190.829 158.559C189.499 161.709 243.059 195.919 250.969 195.439C250.969 195.439 277.069 155.609 285.969 143.799L295.569 151.239C295.569 151.239 314.379 132.179 315.389 125.419C315.389 125.419 297.219 103.309 282.389 96.8295C267.559 90.3495 254.239 79.2694 238.269 79.5694C224.429 79.8694 216.709 82.4695 216.709 82.4695Z" fill="#FFF7C9"></path><path d="M295.59 151.28L286 143.84L287.53 139.68L295.59 151.28Z" fill="#2A1E17"></path><path d="M310.18 72.4897C308.5 77.7197 303.65 92.8297 298.24 94.6897C292.83 96.5497 287.24 94.2197 287.24 94.2197L281.47 97.1597C280.83 99.0897 276.28 100.75 270.41 100.98C266.06 101.15 263.41 95.5597 264.7 91.5197C265.29 89.6597 267.5 80.5197 267.5 80.5197C267.5 80.5197 272.16 63.3597 276.45 59.8197C280.74 56.2797 284.77 52.7597 296.23 57.3897C313.71 64.4697 310.18 72.4897 310.18 72.4897Z" fill="#F9865F"></path><path d="M275.41 73.2395C274.64 76.4395 271.31 82.8595 269.13 81.6995C266.95 80.5395 266.18 77.5995 267.71 71.9495C269.24 66.2995 270.54 53.4795 274.9 51.1695C279.26 48.8595 281.19 51.5495 281.19 51.5495C281.19 51.5495 279.26 42.1895 284.91 40.8995C284.91 40.8995 286.83 40.0095 286.06 46.4195C286.808 44.6569 288.124 43.1947 289.798 42.2653C291.472 41.3359 293.408 40.9924 295.3 41.2895C302.36 42.0595 304.79 51.9395 304.79 51.9395C304.993 51.1234 305.477 50.4051 306.158 49.9111C306.838 49.4172 307.671 49.1793 308.51 49.2395C311.72 49.2395 316.6 53.9895 315.44 59.2395C315.44 59.2395 323.65 56.6695 328.02 63.2395C332.39 69.8095 331.86 76.9695 321.34 79.7895C310.34 82.7395 310.44 69.9095 308.77 68.2395C307.1 66.5695 305.31 64.6495 299.15 66.9595C292.99 69.2695 286.57 62.4695 286.57 62.4695C286.57 62.4695 285.57 70.6795 284.52 71.4695C283.47 72.2595 281.44 73.2695 281.96 69.4695C282.48 65.6695 283.11 65.9995 282.73 64.9795C282.35 63.9595 280.6 60.7095 276.95 63.5695C272.85 66.6895 275.41 73.2395 275.41 73.2395Z" fill="#2A1E33"></path><path d="M277.16 74.6698C274.71 72.6198 273.02 68.9898 275.16 65.3698C277.3 61.7498 280.84 61.2598 281.91 62.6298C282.98 63.9998 283.41 66.3098 282.39 69.0498" stroke="#2A1E33" stroke-linecap="round" stroke-linejoin="round"></path><path d="M217.01 319.93L218.23 322.74L214.46 337.46C214.222 338.369 214.245 339.327 214.526 340.224C214.807 341.12 215.335 341.92 216.05 342.53L234.71 314.9C235.567 313.628 235.942 312.093 235.768 310.57C235.594 309.046 234.882 307.635 233.76 306.59L229.58 302.71L217.01 319.93Z" fill="black"></path><path d="M281.191 51.5597C281.191 51.5597 279.761 46.9097 275.471 45.6797" stroke="#2A1E33" stroke-linecap="round" stroke-linejoin="round"></path><path d="M190.25 157.189L242.03 84.8594" stroke="#2A1E17" stroke-linecap="round" stroke-linejoin="round"></path><path d="M263.37 89.9199C261.51 92.3499 260.66 102.79 269.24 103.46C274.139 103.948 279.066 102.865 283.31 100.37" stroke="#2A1E17" stroke-linecap="round" stroke-linejoin="round"></path><path d="M148.711 56.5596C148.711 56.5596 154.631 64.3896 155.561 67.1796" stroke="#2A1E17" stroke-linecap="round" stroke-linejoin="round"></path><path d="M370.359 161.56C370.359 161.56 374.359 164.81 382.189 160.56C385.039 159.03 383.009 155.42 379.389 156.32C375.769 157.22 371.489 155.87 371.489 155.87" stroke="#2A1E17" stroke-linecap="round" stroke-linejoin="round"></path><path d="M386.881 155.29C386.881 155.29 390.671 159.72 390.571 162.35" stroke="#2A1E17" stroke-linecap="round" stroke-linejoin="round"></path><path d="M331.039 154.81C331.039 154.81 334.469 150.24 338.859 149.93" stroke="#2A1E17" stroke-linecap="round" stroke-linejoin="round"></path><path d="M186.391 94.3702C186.391 94.3702 188.391 88.1302 194.811 86.9902" stroke="#2A1E17" stroke-linecap="round" stroke-linejoin="round"></path><path d="M203.779 189.05L196.119 203.69C196.119 203.69 170.879 246.4 179.449 274" stroke="#2A1E17" stroke-linecap="round" stroke-linejoin="round"></path><path d="M226.141 238.049L250.971 195.479C250.971 195.479 283.521 148.269 286.851 141.609L298.341 120.359" stroke="#2A1E17" stroke-linecap="round" stroke-linejoin="round"></path><path d="M193.711 161.729C193.711 161.729 237.881 193.929 250.971 195.479" stroke="#2A1E17" stroke-linecap="round" stroke-linejoin="round"></path><path d="M216.711 82.4697C216.711 82.4697 216.711 102.68 222.121 110.96" stroke="#2A1E17" stroke-linecap="round" stroke-linejoin="round"></path><path d="M313.99 122.26C312.61 130.58 294.17 148.07 294.17 148.07" stroke="#2A1E17" stroke-linecap="round" stroke-linejoin="round"></path><path d="M176.44 225.98C177.887 225.98 179.06 224.807 179.06 223.36C179.06 221.913 177.887 220.74 176.44 220.74C174.993 220.74 173.82 221.913 173.82 223.36C173.82 224.807 174.993 225.98 176.44 225.98Z" fill="#2A1E17"></path><path d="M422.479 279.71L421.029 269.68L429.579 275.37L425.109 276.34L422.479 279.71Z" stroke="#2A1E17" stroke-linecap="round" stroke-linejoin="round"></path><path d="M138.709 108.48C122.499 94.17 95.7094 129.84 193.709 243.38C250.259 308.88 294.709 314.75 300.709 291.96C311.499 251.08 272.509 240.75 287.019 256.76C308.119 280.04 368.139 284.96 412.859 263.24C456.989 241.8 429.859 208.51 427.119 206.56" stroke="#2A1E17" stroke-linecap="round" stroke-linejoin="round"></path><path d="M413.63 265.65C415.077 265.65 416.25 264.477 416.25 263.03C416.25 261.583 415.077 260.41 413.63 260.41C412.183 260.41 411.01 261.583 411.01 263.03C411.01 264.477 412.183 265.65 413.63 265.65Z" fill="#2A1E17"></path><path d="M375.471 284.44L453.201 240.62" stroke="#2A1E17" stroke-linecap="round" stroke-linejoin="round"></path><path d="M140.35 113.219C141.797 113.219 142.97 112.046 142.97 110.599C142.97 109.153 141.797 107.979 140.35 107.979C138.903 107.979 137.73 109.153 137.73 110.599C137.73 112.046 138.903 113.219 140.35 113.219Z" fill="#2A1E17"></path><path d="M207.22 62.0803C210.329 62.0803 212.85 59.5597 212.85 56.4503C212.85 53.341 210.329 50.8203 207.22 50.8203C204.11 50.8203 201.59 53.341 201.59 56.4503C201.59 59.5597 204.11 62.0803 207.22 62.0803Z" fill="#FF6D66"></path><path d="M105.131 13.5596C104.64 13.5576 104.159 13.7014 103.75 13.9727C103.341 14.244 103.022 14.6306 102.832 15.0836C102.643 15.5366 102.593 16.0355 102.687 16.5173C102.782 16.999 103.017 17.4418 103.363 17.7896C103.71 18.1375 104.152 18.3747 104.633 18.4712C105.114 18.5677 105.614 18.5192 106.067 18.3318C106.521 18.1443 106.909 17.8265 107.182 17.4184C107.455 17.0104 107.601 16.5305 107.601 16.0396C107.601 15.3836 107.341 14.7543 106.878 14.2895C106.415 13.8247 105.787 13.5622 105.131 13.5596Z" fill="#A0C6F4"></path><path d="M436.531 320.72C437.895 320.72 439.001 319.614 439.001 318.25C439.001 316.886 437.895 315.78 436.531 315.78C435.166 315.78 434.061 316.886 434.061 318.25C434.061 319.614 435.166 320.72 436.531 320.72Z" fill="#FAD8B0"></path><path d="M392.329 206.56L365.709 194.08C365.237 193.852 364.839 193.494 364.562 193.048C364.286 192.602 364.142 192.086 364.149 191.561C364.155 191.036 364.311 190.524 364.598 190.085C364.885 189.645 365.291 189.297 365.769 189.08L415.23 167.32C415.576 167.167 415.951 167.088 416.329 167.088C416.708 167.088 417.083 167.167 417.429 167.32L451.429 181.9L392.329 206.56Z" fill="#2A1E33"></path><path d="M390.709 165.56C390.769 176.56 392.349 206.56 392.349 206.56L451.469 181.87L450.139 140.12C450.121 139.529 449.957 138.952 449.663 138.439C449.368 137.927 448.951 137.496 448.45 137.183C447.948 136.87 447.377 136.686 446.787 136.647C446.198 136.609 445.607 136.716 445.069 136.96L394.169 160.16C393.131 160.627 392.251 161.387 391.637 162.345C391.022 163.304 390.7 164.421 390.709 165.56Z" fill="#C6CBCB"></path><path d="M392.33 206.559L451.45 181.869L450.12 140.119C450.12 140.119 449.73 135.559 445.05 136.959" stroke="#2A1E17" stroke-linecap="round" stroke-linejoin="round"></path><path d="M420.949 176.539L424.939 167.109" stroke="#2A1E17" stroke-linecap="round" stroke-linejoin="round"></path><path d="M424.939 176.539L428.929 167.109" stroke="#2A1E17" stroke-linecap="round" stroke-linejoin="round"></path><path d="M115.79 279.44C117.154 279.44 118.26 278.334 118.26 276.97C118.26 275.606 117.154 274.5 115.79 274.5C114.426 274.5 113.32 275.606 113.32 276.97C113.32 278.334 114.426 279.44 115.79 279.44Z" fill="#FF6D66"></path><path d="M324.321 292.67C326.221 292.67 327.761 291.13 327.761 289.23C327.761 287.33 326.221 285.79 324.321 285.79C322.421 285.79 320.881 287.33 320.881 289.23C320.881 291.13 322.421 292.67 324.321 292.67Z" fill="#FF6D66"></path><path d="M141.421 313.64C151.213 318.14 161.875 320.427 172.651 320.34C172.851 320.342 173.048 320.385 173.23 320.468C173.412 320.551 173.575 320.672 173.707 320.822C173.839 320.972 173.938 321.148 173.997 321.339C174.057 321.53 174.075 321.732 174.051 321.93L171.891 339.05C171.851 339.352 171.715 339.634 171.502 339.852C171.29 340.07 171.012 340.213 170.711 340.26C166.331 341.09 148.711 343.51 135.491 332.31C135.29 332.138 135.142 331.912 135.064 331.659C134.986 331.406 134.981 331.136 135.051 330.88L139.451 314.56C139.503 314.359 139.599 314.172 139.732 314.012C139.865 313.853 140.031 313.724 140.219 313.636C140.407 313.548 140.613 313.503 140.821 313.504C141.028 313.505 141.233 313.551 141.421 313.64Z" fill="#FFF7DC"></path><path d="M142.971 318.68C142.971 318.68 150.601 329.39 153.311 330.93C156.021 332.47 170.711 323.71 170.711 323.71" stroke="#2A1E17" stroke-linecap="round" stroke-linejoin="round"></path><path d="M160.51 329.43L168.52 337.66" stroke="#2A1E17" stroke-linecap="round" stroke-linejoin="round"></path><path d="M149.38 327.84L140.01 330.39" stroke="#2A1E17" stroke-linecap="round" stroke-linejoin="round"></path><path d="M386.671 111.05H377.721V120H386.671V111.05Z" fill="#FFE1C0"></path><path d="M378.929 231.74L381.589 236.35L384.249 240.96H378.929H373.619L376.269 236.35L378.929 231.74Z" fill="#A0C6F4"></path><path d="M163.87 27.6698L164.57 6.74977C164.49 4.74977 165.29 4.17976 166.49 3.90976C172.17 2.65976 189.49 -1.19023 208.23 4.35977C210.65 5.07977 210.57 6.35976 210.54 7.51976L209.86 27.4598C209.811 27.8324 209.685 28.1907 209.489 28.5115C209.293 28.8323 209.032 29.1086 208.723 29.3224C208.414 29.5363 208.064 29.683 207.695 29.7532C207.325 29.8234 206.946 29.8154 206.58 29.7298C199.772 28.915 192.915 28.5808 186.06 28.7298C179.466 28.7016 172.883 29.2335 166.38 30.3198C164.52 30.6898 163.82 29.2998 163.87 27.6698Z" stroke="#2A1E17" stroke-linecap="round" stroke-linejoin="round"></path><path d="M170.189 24.6096L181.129 11.8096L193.229 23.7596C189.059 22.3996 170.189 24.6096 170.189 24.6096Z" stroke="#2A1E17" stroke-linecap="round" stroke-linejoin="round"></path><path d="M187.83 17.7402L196.67 10.6602L204.12 15.9802L204.4 24.2902L193.23 23.7502" stroke="#2A1E17" stroke-linecap="round" stroke-linejoin="round"></path><path d="M174.933 10.8684C175.035 9.86283 174.159 8.9509 172.978 8.83153C171.796 8.71215 170.756 9.43053 170.655 10.4361C170.553 11.4417 171.428 12.3536 172.61 12.473C173.791 12.5924 174.831 11.874 174.933 10.8684Z" stroke="#2A1E17" stroke-linecap="round" stroke-linejoin="round"></path><path d="M375.27 299.37L382.6 312.91C383.37 314.12 383.1 314.81 382.44 315.43C379.29 318.34 369.76 327.2 355.76 330.66C353.95 331.11 353.52 330.26 353.12 329.51L346.12 316.6C346.014 316.343 345.963 316.068 345.969 315.791C345.976 315.514 346.04 315.241 346.157 314.99C346.275 314.739 346.443 314.515 346.652 314.332C346.861 314.15 347.105 314.013 347.37 313.93C351.994 311.918 356.469 309.579 360.76 306.93C364.972 304.502 368.97 301.718 372.71 298.61C373.71 297.69 374.71 298.31 375.27 299.37Z" stroke="#2A1E17" stroke-linecap="round" stroke-linejoin="round"></path><path d="M372.39 303.66L370.2 315.85L358.08 312.76C361.23 312.08 372.39 303.66 372.39 303.66Z" stroke="#2A1E17" stroke-linecap="round" stroke-linejoin="round"></path><path d="M363.749 314.58L360.759 322.36L354.059 321.75L350.789 316.57L358.079 312.76" stroke="#2A1E17" stroke-linecap="round" stroke-linejoin="round"></path><path d="M378.569 312.491C379.363 312.125 379.755 311.281 379.444 310.608C379.133 309.935 378.238 309.686 377.444 310.052C376.65 310.419 376.258 311.262 376.569 311.935C376.879 312.609 377.775 312.858 378.569 312.491Z" stroke="#2A1E17" stroke-width="1.00225" stroke-linecap="round" stroke-linejoin="round"></path><path d="M339.569 68.1902L369.359 90.9902C369.514 91.1097 369.691 91.197 369.88 91.2472C370.069 91.2973 370.267 91.3093 370.46 91.2823C370.654 91.2553 370.84 91.1899 371.009 91.0899C371.177 90.99 371.323 90.8575 371.439 90.7002L375.939 84.6002C376.159 84.2966 376.255 83.9204 376.206 83.5486C376.158 83.1768 375.97 82.8376 375.679 82.6002L346.299 59.0902C346.143 58.9673 345.964 58.8772 345.772 58.8251C345.58 58.773 345.38 58.7602 345.183 58.7872C344.986 58.8143 344.796 58.8807 344.626 58.9826C344.455 59.0845 344.307 59.2197 344.189 59.3802L339.269 66.1802C339.051 66.4894 338.96 66.871 339.016 67.2454C339.072 67.6198 339.27 67.9583 339.569 68.1902Z" fill="white" stroke="#2A1E17" stroke-linecap="round" stroke-linejoin="round"></path><path d="M341.779 67.1701L348.999 72.2401L353.269 67.1501L346.039 61.1201L341.779 67.1701Z" fill="#FF6D66"></path><path d="M351.721 74.2203L358.961 79.9603L362.841 75.1903L355.551 69.2803L351.721 74.2203Z" fill="#FAD8B0"></path><path d="M361.391 82.1601L368.621 87.2301L372.061 82.8101L365.221 77.0801L361.391 82.1601Z" fill="#A0C6F4"></path><path d="M399.019 36.3101L405.809 93.3601C405.84 93.6601 405.931 93.9509 406.076 94.2151C406.222 94.4793 406.419 94.7116 406.656 94.8982C406.893 95.0847 407.165 95.2218 407.456 95.3011C407.747 95.3805 408.051 95.4005 408.349 95.3601L419.849 93.7901C420.427 93.7078 420.951 93.4064 421.312 92.9484C421.673 92.4904 421.844 91.9108 421.789 91.3301L416.209 33.9601C416.179 33.6572 416.087 33.3636 415.94 33.0971C415.793 32.8307 415.593 32.5969 415.353 32.4099C415.112 32.2229 414.837 32.0866 414.542 32.0093C414.248 31.932 413.941 31.9152 413.639 31.9601L400.929 33.8201C400.349 33.9046 399.825 34.2121 399.469 34.6771C399.112 35.1422 398.951 35.728 399.019 36.3101Z" fill="white" stroke="#2A1E17" stroke-linecap="round" stroke-linejoin="round"></path><path d="M402.5 37.6394L404.65 50.9794L414.79 50.2294L413.68 35.8594L402.5 37.6394Z" fill="#FF6D66"></path><path d="M405.381 56.0798L406.811 70.1498L416.191 69.3098L414.891 55.0098L405.381 56.0798Z" fill="#91BA83"></path><path d="M406.99 75.1802L409.14 88.5202L417.67 87.5802L416.64 73.9502L406.99 75.1802Z" fill="#FAD8B0"></path><path d="M384.2 48.4499L403 103.72C403.076 103.945 403.197 104.153 403.354 104.331C403.512 104.509 403.703 104.654 403.917 104.757C404.131 104.861 404.364 104.92 404.601 104.933C404.839 104.945 405.076 104.91 405.3 104.83L417.08 100.56C417.516 100.403 417.875 100.083 418.08 99.6671C418.286 99.2511 418.321 98.7717 418.18 98.3299L400.53 42.5599C400.457 42.3273 400.338 42.1121 400.179 41.9273C400.02 41.7426 399.825 41.5922 399.606 41.4855C399.387 41.3788 399.148 41.3179 398.905 41.3066C398.661 41.2953 398.418 41.3339 398.19 41.4199L385.27 46.2099C384.833 46.3682 384.477 46.6918 384.276 47.1109C384.076 47.5299 384.049 48.0108 384.2 48.4499Z" fill="white" stroke="#2A1E17" stroke-linecap="round" stroke-linejoin="round"></path><path d="M388.02 49.4596L392.9 62.0696L402.66 59.2197L398.59 45.3896L388.02 49.4596Z" fill="#A0C6F4"></path><path d="M394.68 66.9001L399 80.3701L408 77.5901L403.76 63.8701L394.68 66.9001Z" fill="#F9865F"></path><path d="M400.221 85.2503L405.101 97.8503L413.251 95.1503L409.411 82.0303L400.221 85.2503Z" fill="#FAD8B0"></path><path d="M242.51 118.26H147.56C144.534 118.26 142.08 120.713 142.08 123.74V136.59C142.08 139.616 144.534 142.07 147.56 142.07H242.51C245.537 142.07 247.99 139.616 247.99 136.59V123.74C247.99 120.713 245.537 118.26 242.51 118.26Z" fill="#7595EC"></path><path d="M206.929 125.27H155.169C154.17 125.27 153.359 126.08 153.359 127.08C153.359 128.079 154.17 128.89 155.169 128.89H206.929C207.929 128.89 208.739 128.079 208.739 127.08C208.739 126.08 207.929 125.27 206.929 125.27Z" fill="white"></path><path d="M153.881 133.59H241.871" stroke="#2A1E17" stroke-linecap="round" stroke-linejoin="round"></path><path d="M108.842 73.4502L110.339 75.0893C110.643 75.4222 110.803 75.8623 110.782 76.3127C110.762 76.7631 110.563 77.1869 110.23 77.491L107.779 79.7301C107.446 80.0342 107.006 80.1936 106.556 80.1732C106.105 80.1528 105.681 79.9544 105.377 79.6215L103.88 77.9824L108.842 73.4502Z" fill="#91BA83"></path><path d="M95.3735 70.2755L102.435 78.0059C102.8 78.4055 103.42 78.4336 103.819 78.0686L108.7 73.6106C109.099 73.2455 109.127 72.6257 108.762 72.226L101.701 64.4956C101.336 64.096 100.716 64.068 100.317 64.433L95.4361 68.891C95.0365 69.256 95.0084 69.8759 95.3735 70.2755Z" stroke="#2A1E17" stroke-linecap="round" stroke-linejoin="round"></path><path d="M88.0009 105.399H79.1309V113.499H88.0009V105.399Z" fill="#FF6D66"></path><path d="M79.1301 100.189V105.399H73.8301" stroke="#2A1E17" stroke-linecap="round" stroke-linejoin="round"></path><path d="M380.251 13.9297H371.381V22.0297H380.251V13.9297Z" fill="#FAD8B0"></path><path d="M371.38 8.71973V13.9297H366.08" stroke="#2A1E17" stroke-linecap="round" stroke-linejoin="round"></path><path d="M131.291 63.9999C39.2906 25.8799 -31.4694 99.2999 141.891 211.72C155.541 220.58 176.471 223.72 176.471 223.72" stroke="#2A1E17" stroke-linecap="round" stroke-linejoin="round"></path><path d="M46.7098 69.1795C48.1568 69.1795 49.3298 68.0064 49.3298 66.5595C49.3298 65.1125 48.1568 63.9395 46.7098 63.9395C45.2629 63.9395 44.0898 65.1125 44.0898 66.5595C44.0898 68.0064 45.2629 69.1795 46.7098 69.1795Z" fill="#2A1E17"></path><path d="M30.0293 52.1702L32.8993 49.4102L39.4893 53.1902L42.8093 63.4202L32.6793 59.1802L30.0293 52.1702Z" stroke="#2A1E17" stroke-linecap="round" stroke-linejoin="round"></path><path d="M32.8999 49.4101L30.0299 52.1701L28.4199 50.2201L31.1699 47.5801L32.8999 49.4101Z" stroke="#2A1E17" stroke-linecap="round" stroke-linejoin="round"></path><path d="M42.8107 63.4195L36.2207 56.1895" stroke="#2A1E17" stroke-linecap="round" stroke-linejoin="round"></path><path d="M58.7093 247L65.8493 283.84C65.8886 284.032 65.9653 284.214 66.0751 284.376C66.1849 284.538 66.3255 284.677 66.4889 284.785C66.6524 284.893 66.8354 284.967 67.0277 285.004C67.2199 285.041 67.4175 285.04 67.6093 285L75.0193 283.42C75.3922 283.343 75.7201 283.123 75.9331 282.807C76.146 282.491 76.2272 282.105 76.1593 281.73L69.7893 244.65C69.7549 244.454 69.6811 244.268 69.5724 244.101C69.4637 243.935 69.3223 243.792 69.1569 243.681C68.9914 243.571 68.8052 243.496 68.6097 243.459C68.4142 243.423 68.2133 243.427 68.0193 243.47L59.8293 245.29C59.4546 245.37 59.1266 245.594 58.9167 245.914C58.7069 246.235 58.6323 246.625 58.7093 247Z" fill="white" stroke="#2A1E17" stroke-linecap="round" stroke-linejoin="round"></path><path d="M61.0801 247.7L63.1201 256.29L69.6801 255.32L68.2801 246.01L61.0801 247.7Z" fill="#FF6D66"></path><path d="M63.8398 259.58L65.4398 268.67L71.5098 267.68L69.9798 258.42L63.8398 259.58Z" fill="#FAD8B0"></path><path d="M65.8008 271.94L67.8308 280.53L73.3408 279.5L72.0308 270.68L65.8008 271.94Z" fill="#A0C6F4"></path><path d="M263.439 339.309L293.639 331.229L294.799 334.499L264.249 342.429L263.439 339.309Z" stroke="#2A1E17" stroke-linecap="round" stroke-linejoin="round"></path><path d="M259.24 335.09L260.12 337.83" stroke="#2A1E17" stroke-linecap="round" stroke-linejoin="round"></path><path d="M258.391 336.88L260.941 336" stroke="#2A1E17" stroke-linecap="round" stroke-linejoin="round"></path><path d="M257.779 345.56L259.419 350.74" stroke="#2A1E17" stroke-linecap="round" stroke-linejoin="round"></path><path d="M256.381 348.839L260.921 347.399" stroke="#2A1E17" stroke-linecap="round" stroke-linejoin="round"></path><path d="M250.869 337.02L253.019 343.88" stroke="#2A1E17" stroke-linecap="round" stroke-linejoin="round"></path><path d="M248.74 341.29L255.1 339.26" stroke="#2A1E17" stroke-linecap="round" stroke-linejoin="round"></path><path d="M43.1705 11.1498L24.0605 2.51984L24.8505 0.339844L44.0805 9.18984L43.1705 11.1498Z" stroke="#2A1E17" stroke-width="0.67" stroke-linecap="round" stroke-linejoin="round"></path><path d="M43.5605 15.1301L44.2705 13.3301" stroke="#2A1E17" stroke-width="0.67" stroke-linecap="round" stroke-linejoin="round"></path><path d="M44.7605 14.5597L43.0605 13.9297" stroke="#2A1E17" stroke-width="0.67" stroke-linecap="round" stroke-linejoin="round"></path><path d="M48.7598 10.3097L50.1098 6.92969" stroke="#2A1E17" stroke-width="0.67" stroke-linecap="round" stroke-linejoin="round"></path><path d="M50.8799 9.19953L47.9199 8.01953" stroke="#2A1E17" stroke-width="0.67" stroke-linecap="round" stroke-linejoin="round"></path><path d="M48.7207 17.68L50.5207 13.21" stroke="#2A1E17" stroke-width="0.67" stroke-linecap="round" stroke-linejoin="round"></path><path d="M51.6405 16.3697L47.4805 14.7197" stroke="#2A1E17" stroke-width="0.67" stroke-linecap="round" stroke-linejoin="round"></path><path d="M114.61 172.56C101.13 162.86 87.8895 147.78 93.6995 132.29C93.6995 132.29 102.99 126.1 117.7 133.84L132.42 141.58L114.61 172.56Z" fill="#FAD8B0"></path><path d="M108.501 237.23C102.441 234.36 76.5009 220.88 71.9409 197.85C67.9409 177.96 83.1809 151.13 90.8009 139.28C90.3109 155.01 106.111 168.28 113.731 173.81C120.215 178.578 127.369 182.359 134.961 185.03L108.501 237.23Z" fill="white"></path><path d="M89.6392 143.96C91.2992 154.42 99.2792 165.25 112.849 175.03C118.977 179.551 125.709 183.19 132.849 185.84L107.849 235.24C100.219 231.44 77.6392 218.58 73.4292 197.56C69.9392 180.09 81.7892 156.92 89.6592 143.96M93.7092 132.33C93.7092 132.33 65.0592 171.05 70.4792 198.15C75.8992 225.25 109.199 239.15 109.199 239.15L137.069 184.15C128.359 180.96 122.699 178.36 114.619 172.54C101.139 162.84 87.8992 147.76 93.7092 132.27V132.33Z" fill="#FAD8B0"></path><path d="M86.1699 154.83C87.0105 159.868 89.0015 164.644 91.988 168.788C94.9745 172.931 98.8763 176.33 103.39 178.72" stroke="#2A1E17" stroke-linecap="round" stroke-linejoin="round"></path><path d="M111.721 184.27L127.271 192.6" stroke="#2A1E17" stroke-linecap="round" stroke-linejoin="round"></path><path d="M88.3906 177.05C88.3906 177.05 93.3906 188.16 109.501 195.38" stroke="#2A1E17" stroke-linecap="round" stroke-linejoin="round"></path><path d="M75.6094 178.72C75.6094 178.72 76.1694 190.38 83.9494 194.27" stroke="#2A1E17" stroke-linecap="round" stroke-linejoin="round"></path><path d="M93.3894 138.17C93.3894 138.17 91.9494 153.17 114.609 172.6" stroke="#2A1E17" stroke-linecap="round" stroke-linejoin="round"></path><path d="M101.711 140.95C101.711 140.95 108.931 140.39 119.481 148.17" stroke="#2A1E17" stroke-linecap="round" stroke-linejoin="round"></path><path d="M67.7602 188.77C67.3002 196.2 68.2302 223.13 107.23 240.31" stroke="#2A1E17" stroke-linecap="round" stroke-linejoin="round"></path><path d="M316.79 173.79L300.25 206.94C300.25 206.94 311.47 211.07 302.7 223.94C302.7 223.94 323.44 232.54 337.01 210.21C350.58 187.88 316.79 173.79 316.79 173.79Z" fill="#91BA83"></path><path d="M278.94 275.11C270.56 275.11 261.73 271.69 252.66 264.94L283.6 213.68L302.01 225.27L302.13 225.32C305.348 226.501 308.753 227.09 312.18 227.06C317.994 227.092 323.671 225.298 328.41 221.93L305.79 260.63C305.71 260.7 296 275.11 278.94 275.11Z" fill="white"></path><path d="M284.101 215.76L301.101 226.47L301.321 226.61L301.551 226.7C304.953 227.958 308.554 228.588 312.181 228.56C316.348 228.577 320.472 227.711 324.281 226.02L304.551 259.78C303.891 260.73 294.641 273.61 278.941 273.61C271.231 273.61 263.071 270.56 254.651 264.54L284.101 215.76ZM337.011 210.2C329.341 222.82 319.391 225.56 312.181 225.56C308.949 225.587 305.738 225.035 302.701 223.93L283.111 211.56L250.711 265.32C261.571 273.7 271.041 276.61 278.971 276.61C297.091 276.61 307.121 261.39 307.121 261.39L337.041 210.2H337.011Z" fill="#96BD89"></path><path d="M300.25 206.939C300.25 206.939 312.59 211.299 302.7 223.939" stroke="#2A1E17" stroke-linecap="round" stroke-linejoin="round"></path><path d="M282.711 210.439C282.711 210.439 299.511 225.839 308.821 225.739C318.131 225.639 329.031 223.419 335.461 212.319" stroke="#2A1E17" stroke-linecap="round" stroke-linejoin="round"></path><path d="M284.789 230.359C284.789 230.359 296.319 240.599 309.219 237.309" stroke="#2A1E17" stroke-linecap="round" stroke-linejoin="round"></path><path d="M296.9 245.67C296.9 245.67 302.96 250.2 311.42 245.91" stroke="#2A1E17" stroke-linecap="round" stroke-linejoin="round"></path><path d="M269.061 251.979C269.061 251.979 283.061 265.869 305.011 256.709" stroke="#2A1E17" stroke-linecap="round" stroke-linejoin="round"></path><path d="M276.711 238.43C276.711 238.43 282.411 242.51 285.981 243.81" stroke="#2A1E17" stroke-linecap="round" stroke-linejoin="round"></path><path d="M319.641 183.41C319.641 183.41 332.381 187.58 333.911 204.41" stroke="#2A1E17" stroke-linecap="round" stroke-linejoin="round"></path><path d="M326.04 204.2C326.04 204.2 331.91 213.29 321.99 222.37" stroke="#2A1E17" stroke-linecap="round" stroke-linejoin="round"></path><path d="M251.859 267.86C251.859 267.86 283.859 295.28 307.109 263.22" stroke="#2A1E17" stroke-linecap="round" stroke-linejoin="round"></path><path d="M20.7793 163.439H28.2393" stroke="#FF6D66" stroke-linecap="round" stroke-linejoin="round"></path><path d="M436.529 73.6699H443.989" stroke="#FF6D66" stroke-linecap="round" stroke-linejoin="round"></path><path d="M236.381 22.4697H243.851" stroke="#FAD8B0" stroke-miterlimit="10"></path><path d="M450.779 112.38L458.119 113.7" stroke="#FAD8B0" stroke-miterlimit="10"></path><path d="M157.6 298.609H165.07" stroke="#A0C6F4" stroke-linecap="round" stroke-linejoin="round"></path><path d="M466.861 208.04C468.225 208.04 469.331 206.934 469.331 205.57C469.331 204.205 468.225 203.1 466.861 203.1C465.496 203.1 464.391 204.205 464.391 205.57C464.391 206.934 465.496 208.04 466.861 208.04Z" fill="#91BA83"></path><path d="M2.47 89.4195C3.83414 89.4195 4.94 88.3136 4.94 86.9495C4.94 85.5853 3.83414 84.4795 2.47 84.4795C1.10586 84.4795 0 85.5853 0 86.9495C0 88.3136 1.10586 89.4195 2.47 89.4195Z" fill="#91BA83"></path></svg>