<svg xmlns="http://www.w3.org/2000/svg" width="53" height="55" viewBox="0 0 53 55" fill="none"><path d="M30.6822 13.7522H33.4719C34.2116 13.7529 34.9207 14.0429 35.4437 14.5584C35.9667 15.0739 36.2609 15.7729 36.2616 16.502V19.2518C36.2616 19.9811 36.5556 20.6805 37.0787 21.1962C37.6019 21.7118 38.3115 22.0016 39.0514 22.0016C39.7912 22.0016 40.5008 21.7118 41.024 21.1962C41.5472 20.6805 41.8411 19.9811 41.8411 19.2518V16.502C41.8389 14.3148 40.9564 12.2178 39.3874 10.6712C37.8183 9.12465 35.6909 8.25482 33.4719 8.25264H30.6822C29.9423 8.25264 29.2327 8.54235 28.7095 9.05803C28.1864 9.57372 27.8925 10.2731 27.8925 11.0024C27.8925 11.7317 28.1864 12.4311 28.7095 12.9468C29.2327 13.4625 29.9423 13.7522 30.6822 13.7522ZM19.5233 38.5003H16.7335C15.9939 38.4995 15.2847 38.2096 14.7617 37.6941C14.2387 37.1785 13.9445 36.4795 13.9438 35.7505V33.0007C13.9438 32.2714 13.6499 31.572 13.1267 31.0563C12.6035 30.5406 11.894 30.2509 11.1541 30.2509C10.4142 30.2509 9.70462 30.5406 9.18144 31.0563C8.65827 31.572 8.36435 32.2714 8.36435 33.0007V35.7505C8.36657 37.9377 9.24903 40.0347 10.8181 41.5812C12.3871 43.1278 14.5146 43.9976 16.7335 43.9998H19.5233C20.2631 43.9998 20.9727 43.7101 21.4959 43.1944C22.0191 42.6787 22.313 41.9793 22.313 41.25C22.313 40.5207 22.0191 39.8213 21.4959 39.3056C20.9727 38.79 20.2631 38.5003 19.5233 38.5003ZM50.2103 35.7505C50.9502 35.7505 51.6597 35.4608 52.1829 34.9451C52.7061 34.4294 53 33.73 53 33.0007C53 32.2714 52.7061 31.572 52.1829 31.0563C51.6597 30.5406 50.9502 30.2509 50.2103 30.2509H41.8411V28.876C41.8411 28.1467 41.5472 27.4473 41.024 26.9316C40.5008 26.4159 39.7912 26.1262 39.0514 26.1262C38.3115 26.1262 37.6019 26.4159 37.0787 26.9316C36.5556 27.4473 36.2616 28.1467 36.2616 28.876V30.2509H27.8925C27.1526 30.2509 26.443 30.5406 25.9198 31.0563C25.3966 31.572 25.1027 32.2714 25.1027 33.0007C25.1027 33.73 25.3966 34.4294 25.9198 34.9451C26.443 35.4608 27.1526 35.7505 27.8925 35.7505H42.3544C41.7238 38.2779 40.5593 40.6457 38.937 42.6992C38.2721 41.8505 37.684 40.9461 37.1795 39.9961C37.019 39.664 36.7925 39.367 36.5135 39.1227C36.2345 38.8784 35.9085 38.6918 35.555 38.5738C35.2015 38.4559 34.8276 38.4091 34.4554 38.4362C34.0832 38.4633 33.7203 38.5637 33.3881 38.7316C33.056 38.8994 32.7615 39.1312 32.5219 39.4132C32.2823 39.6953 32.1025 40.0219 31.9933 40.3736C31.884 40.7254 31.8475 41.0952 31.8858 41.4611C31.9242 41.827 32.0366 42.1816 32.2165 42.5039C32.9686 43.9352 33.8659 45.2877 34.8947 46.5406C32.8698 47.9896 30.5672 49.0178 28.1268 49.5626C27.4039 49.7183 26.7734 50.1507 26.374 50.7646C25.9745 51.3785 25.8389 52.1237 25.9968 52.8362C26.1548 53.5488 26.5934 54.1702 27.2163 54.564C27.8391 54.9577 28.5951 55.0914 29.318 54.9357C32.8183 54.1724 36.1017 52.6486 38.9286 50.4756C41.7795 52.6504 45.085 54.1738 48.6062 54.9357C49.329 55.0925 50.0855 54.9598 50.7091 54.5669C51.3327 54.1739 51.7725 53.5529 51.9315 52.8404C52.0906 52.1279 51.956 51.3822 51.5574 50.7675C51.1587 50.1529 50.5286 49.7194 49.8058 49.5626C47.3504 49.0245 45.0298 48.0052 42.9821 46.5654C45.5622 43.436 47.3016 39.7167 48.0399 35.7505H50.2103ZM16.8172 25.4195C17.0013 26.1224 17.4598 26.725 18.0928 27.0959C18.7258 27.4669 19.482 27.576 20.1963 27.3996C20.9107 27.2233 21.5253 26.7756 21.9062 26.1543C22.287 25.533 22.4032 24.7885 22.2293 24.0831L17.3277 4.75217C16.9838 3.39486 16.1893 2.18987 15.0707 1.3288C13.952 0.467723 12.5734 0 11.1541 0C9.73474 0 8.35615 0.467723 7.23751 1.3288C6.11886 2.18987 5.32439 3.39486 4.98041 4.75217L0.0788592 24.0831C-0.094992 24.7885 0.0211674 25.533 0.402005 26.1543C0.782842 26.7756 1.39746 27.2233 2.11182 27.3996C2.82617 27.576 3.58231 27.4669 4.21533 27.0959C4.84834 26.725 5.30688 26.1224 5.49093 25.4195L7.05318 19.2518H15.255L16.8172 25.4195ZM8.44804 13.7522L10.3953 6.08856C10.4538 5.93689 10.5577 5.80634 10.6932 5.71422C10.8287 5.6221 10.9895 5.57277 11.1541 5.57277C11.3187 5.57277 11.4794 5.6221 11.615 5.71422C11.7505 5.80634 11.8544 5.93689 11.9129 6.08856L13.8573 13.7522H8.44804Z" fill="url(#paint0_linear_244_3914)"></path><defs><linearGradient id="paint0_linear_244_3914" x1="-18.7267" y1="-42.9" x2="100.576" y2="-11.01" gradientUnits="userSpaceOnUse"><stop stop-color="#3796F4"></stop><stop offset="1" stop-color="#47E2E9"></stop></linearGradient></defs></svg>