<svg xmlns="http://www.w3.org/2000/svg" width="75" height="50" viewBox="0 0 75 50" fill="none"><path d="M62.5 0C64.1576 0 65.7473 0.65848 66.9194 1.83058C68.0915 3.00268 68.75 4.5924 68.75 6.25V37.5C68.75 40.9688 65.9688 43.75 62.5 43.75H75V50H0V43.75H12.5C10.8424 43.75 9.25268 43.0915 8.08058 41.9194C6.90848 40.7473 6.25 39.1576 6.25 37.5V6.25C6.25 2.78125 9.03125 0 12.5 0H62.5ZM62.5 6.25H12.5V37.5H62.5V6.25ZM37.5 25C44.4063 25 50 27.8125 50 31.25V34.375H25V31.25C25 27.8125 30.5937 25 37.5 25ZM37.5 9.375C39.1576 9.375 40.7473 10.0335 41.9194 11.2056C43.0915 12.3777 43.75 13.9674 43.75 15.625C43.75 17.2826 43.0915 18.8723 41.9194 20.0444C40.7473 21.2165 39.1576 21.875 37.5 21.875C34.0312 21.875 31.25 19.0938 31.25 15.625C31.25 12.1562 34.0625 9.375 37.5 9.375Z" fill="url(#paint0_linear_244_3913)"></path><defs><linearGradient id="paint0_linear_244_3913" x1="-26.5" y1="-39" x2="127.692" y2="25.1571" gradientUnits="userSpaceOnUse"><stop stop-color="#3796F4"></stop><stop offset="1" stop-color="#47E2E9"></stop></linearGradient></defs></svg>