<svg xmlns="http://www.w3.org/2000/svg" width="54" height="61" viewBox="0 0 54 61" fill="none"><path d="M48 6.10056H35.46C34.8457 4.31766 33.7016 2.77291 32.186 1.67999C30.6704 0.587067 28.8582 0 27 0C25.1418 0 23.3296 0.587067 21.814 1.67999C20.2984 2.77291 19.1543 4.31766 18.54 6.10056H6C4.41016 6.10538 2.8868 6.7496 1.7626 7.89252C0.638414 9.03543 0.00474818 10.5842 0 12.2005V54.9001C0.00474818 56.5164 0.638414 58.0651 1.7626 59.208C2.8868 60.351 4.41016 60.9952 6 61H48C49.5898 60.9952 51.1132 60.351 52.2374 59.208C53.3616 58.0651 53.9953 56.5164 54 54.9001V12.2005C53.9953 10.5842 53.3616 9.03543 52.2374 7.89252C51.1132 6.7496 49.5898 6.10538 48 6.10056ZM27 6.10056C27.5933 6.10056 28.1734 6.27943 28.6667 6.61457C29.1601 6.9497 29.5446 7.42604 29.7716 7.98335C29.9987 8.54066 30.0581 9.15391 29.9424 9.74554C29.8266 10.3372 29.5409 10.8806 29.1213 11.3072C28.7018 11.7337 28.1672 12.0242 27.5853 12.1419C27.0033 12.2596 26.4001 12.1992 25.8519 11.9683C25.3038 11.7375 24.8352 11.3466 24.5056 10.845C24.1759 10.3434 24 9.75375 24 9.15052C24.0024 8.34237 24.3192 7.568 24.8813 6.99654C25.4434 6.42508 26.2051 6.10297 27 6.10056ZM21 21.3504L29.37 29.872L36.93 22.1861L33 18.3004H45V30.5003L41.172 26.5018L29.376 38.5034L21 29.9818L13.242 37.8629L9 33.5503L21 21.3504ZM48 51.8501H6V45.7502H48V51.8501Z" fill="url(#paint0_linear_244_3916)"></path><defs><linearGradient id="paint0_linear_244_3916" x1="-19.08" y1="-47.58" x2="103.752" y2="-17.4175" gradientUnits="userSpaceOnUse"><stop stop-color="#3796F4"></stop><stop offset="1" stop-color="#47E2E9"></stop></linearGradient></defs></svg>