<svg xmlns="http://www.w3.org/2000/svg" xmlns:xlink="http://www.w3.org/1999/xlink" viewBox="0 0 421.24 363.48"><defs><style>.cls-1{isolation:isolate;}.cls-2{fill:#d6e3fe;}.cls-3{fill:#bc74e1;}.cls-4{fill:#a364c8;}.cls-5{fill:#08e1b6;}.cls-6{fill:#04c89b;}.cls-7,.cls-8{fill:#6833a3;}.cls-15,.cls-16,.cls-22,.cls-8{opacity:0.4;}.cls-16,.cls-19,.cls-26,.cls-27,.cls-9{fill:none;}.cls-26,.cls-27,.cls-9{stroke:#6833a3;}.cls-16,.cls-26,.cls-27,.cls-9{stroke-miterlimit:10;}.cls-10{fill:#7ca1d6;}.cls-11{fill:url(#linear-gradient);}.cls-12,.cls-15,.cls-22{fill:#fff;}.cls-13{fill:#5b8cdd;}.cls-14{fill:#a9c7f9;}.cls-15{mix-blend-mode:overlay;}.cls-16{stroke:#402083;stroke-width:4px;mix-blend-mode:multiply;}.cls-17{fill:#008487;}.cls-18{fill:#00cbdc;}.cls-20{fill:#235098;}.cls-21{fill:#4883ed;}.cls-22{font-size:12.71px;font-family:MyriadPro-Regular, Myriad Pro;letter-spacing:0.18em;}.cls-23{letter-spacing:0.2em;}.cls-24{letter-spacing:0.23em;}.cls-25{letter-spacing:0.2em;}.cls-26{stroke-width:3px;}.cls-27{stroke-width:2px;}</style><linearGradient id="linear-gradient" x1="231.12" y1="347.6" x2="231.12" y2="35.52" gradientUnits="userSpaceOnUse"><stop offset="0" stop-color="#3d1f81"></stop><stop offset="1" stop-color="#6b34a6"></stop></linearGradient></defs><title>Asset 1</title><g class="cls-1"><g id="Layer_2" data-name="Layer 2"><g id="Objects"><path class="cls-2" d="M421.24,342.35C421.24,354,328,363.48,213,363.48S4.7,354,4.7,342.35,98,321.21,213,321.21,421.24,330.67,421.24,342.35Z"></path><path class="cls-3" d="M114.52,264.6c-2.63.25-5.18,1.26-7.85,1.25-3.22,0-2.86-10.28-3.24-12.88-1-6.39-3.61-13.05-9.32-16.57a14.81,14.81,0,0,0-17.31,1.44c-3.12,2.75-5,6.52-6.82,10.27-1.47-1.53-3-2.86-3.9-3.7a132.49,132.49,0,0,0-16.89-14.12c-4.63-3.22-10.87-7.24-16.76-6.86-6.6.42-7,7.84-6.33,12.86.06.43.14.86.22,1.28-1.85-1.43-3.72-2.83-5.63-4.17-5.71-4-13.75-4.9-18.33,1.15a2,2,0,0,0-.3.53,2.32,2.32,0,0,0-.39.47c-3.91,6.3-.46,13.37,5.18,17.3,2,1.37,4,2.64,6.06,3.87-4.73.82-9.47,2.59-10.86,6.84-1.79,5.44,3.8,10,7.26,13.18,5.41,4.95,12.12,8.62,18.62,11.94a94.09,94.09,0,0,0,10.78,5.06,42.59,42.59,0,0,0-7,9.43c-2.8,5.65-.66,12.71,3.89,16.78,5.1,4.55,12.19,4.63,18.58,3.53,2.45-.42,12.6-4.54,13.88-2.22,1.15,2.11,1.27,5,1.68,7.28a17.53,17.53,0,0,0,4.45,9.09c4.59,4.81,11.63,5.15,17.81,4.42,7.13-.84,14.17-3.48,20.64-6.47,3.54-1.63,7-3.47,10.45-5.24,1.65-.85,4.91-3.79,6.88-3.36a3.35,3.35,0,0,0,3.64-1.07h0l.14-.18.07-.09.06-.1.12-.19h0a3.35,3.35,0,0,0,.33-.83,3.13,3.13,0,0,0-.64-3c-1-1.52.3-5,.56-6.58.61-3.82.86-7.76,1.18-11.6a76.73,76.73,0,0,0-1.07-21.76c-1.25-6.1-4.08-12.56-9.89-15.53A17.56,17.56,0,0,0,114.52,264.6Z"></path><path class="cls-4" d="M64.6,252.36a1.51,1.51,0,1,0-3-.29l-2,20.71L41.67,260.45l2.15-22.38a1.52,1.52,0,0,0-3-.28l-2,20.7L18.93,244.83l-.07-.05a1.51,1.51,0,0,0-1.72,2.49l.07.06L37.1,261l-18.62,9.28A1.51,1.51,0,0,0,19.83,273L40,263l17.93,12.32-18.62,9.28a1.51,1.51,0,0,0,1.35,2.71l20.12-10,19.32,13.28-18.62,9.28a1.51,1.51,0,0,0,1.35,2.71l20.12-10,21,14.46-18.62,9.28a1.51,1.51,0,0,0,1.35,2.71l20.12-10,18.77,12.9a1.52,1.52,0,0,0,1.71-2.5l-18.76-12.9L110.66,284a1.52,1.52,0,1,0-3-.29l-2,20.7L84.62,290l2.15-22.37a1.52,1.52,0,1,0-3-.29l-2,20.7L62.45,274.74Z"></path><path class="cls-5" d="M164.75,241.59c-3.32-.81-6.85-.66-10.1-1.81-3.92-1.39.87-13.76,1.51-17.09,1.56-8.21,1.14-17.47-4.32-24.19a19.17,19.17,0,0,0-21.75-5.6c-5,2-8.88,5.83-12.68,9.63-1.14-2.49-2.5-4.78-3.19-6.17A170.17,170.17,0,0,0,99.61,172c-4.28-5.89-10.19-13.45-17.54-15.49-8.23-2.29-11.91,6.57-13.19,13-.11.55-.19,1.1-.28,1.65q-2.46-3.8-5.09-7.48c-5.26-7.33-14.7-11.82-22.86-6.39a3.37,3.37,0,0,0-.59.52,3,3,0,0,0-.67.41c-7.45,6-6.25,16.12-1,23.31,1.81,2.51,3.77,4.92,5.75,7.31-6.12-1-12.65-.88-16.16,3.72-4.49,5.88.39,13.83,3.26,19.17,4.5,8.34,11.12,15.68,17.64,22.49a124.41,124.41,0,0,0,11,10.75c-4.45,2.44-8.81,4.9-12.53,8.54-5.82,5.71-6.21,15.23-2.39,22.13,4.29,7.73,12.9,10.83,21.17,12.2,3.17.53,17.32-.18,17.88,3.2.51,3.06-.56,6.6-1,9.6a22.69,22.69,0,0,0,1.57,13c3.55,7.82,12,11.23,19.85,13,9.06,2,18.77,1.77,27.94.88,5-.49,10-1.26,15-2,2.36-.33,7.59-2.54,9.81-1.18A4.06,4.06,0,0,0,161,325a4.57,4.57,0,0,0,1.06-.47h0l.24-.16.12-.08.11-.09a2.11,2.11,0,0,0,.23-.19h0a4,4,0,0,0,.76-.87,4.05,4.05,0,0,0,.47-3.89c-.56-2.27,2.49-5.93,3.49-7.79,2.36-4.4,4.35-9.09,6.37-13.66a99.05,99.05,0,0,0,7.94-27c1.06-8,.37-17.08-5.47-23.16C173.1,244.34,169.14,242.67,164.75,241.59Z"></path><path class="cls-6" d="M109,205.43a2,2,0,0,0-3.56-1.63L94.25,228.22,77.61,205.56l12.14-26.39a2,2,0,0,0-3.56-1.64L75,202q-9.22-12.57-18.46-25.13a.61.61,0,0,0-.07-.1c-1.49-2-4.64.29-3.15,2.32a.86.86,0,0,1,.07.1L71.8,204.27l-26.66,3.41a2,2,0,0,0,.5,3.88l28.81-3.68L91.1,230.54,64.43,234a2,2,0,0,0,.5,3.88l28.82-3.68,17.92,24.4L85,262a2,2,0,0,0,.5,3.89l28.81-3.69,19.53,26.59-26.67,3.4a2,2,0,0,0,.5,3.89l28.82-3.69q8.7,11.86,17.42,23.72c1.49,2,4.65-.28,3.15-2.32L139.65,290l12.14-26.4a2,2,0,0,0-3.56-1.63L137,286.43l-19.52-26.58,12.13-26.4a2,2,0,1,0-3.55-1.64l-11.23,24.43L96.9,231.83Z"></path><path class="cls-5" d="M303.94,271.29c-4.26,2.9-5.83,8.24-6.21,13.14a60.58,60.58,0,0,0,1.33,17.14c.62,3,1.21,6,2.07,9,.36,1.24,1.72,3.81,1.09,5.1A2.5,2.5,0,0,0,302,318a2.91,2.91,0,0,0,.35.62h0a1.34,1.34,0,0,0,.11.14l0,.07.06.06.13.13h0a2.58,2.58,0,0,0,.57.41,2.47,2.47,0,0,0,2.39.06c1.5-.53,4.34,1.45,5.72,1.95,2.89,1.05,5.77,2.14,8.7,3.07a55.64,55.64,0,0,0,16.8,3c4.91,0,10.39-1,13.5-5.23a13.78,13.78,0,0,0,2.59-7.56c.09-1.85-.1-4.1.59-5.86.77-1.95,9.13.27,11.09.35,5.11.23,10.65-.53,14.19-4.6,3.16-3.64,4.14-9.38,1.38-13.53a33.31,33.31,0,0,0-6.4-6.69,75.61,75.61,0,0,0,7.94-5c4.76-3.25,9.65-6.79,13.39-11.2,2.39-2.83,6.32-7,4.38-11-1.52-3.19-5.4-4.1-9.19-4.27,1.49-1.17,3-2.37,4.37-3.64,4-3.64,6-9.51,2.33-14.06a2.15,2.15,0,0,0-.35-.33,1.42,1.42,0,0,0-.29-.38c-4.18-4.28-10.39-2.79-14.46.92-1.36,1.24-2.69,2.52-4,3.82,0-.34,0-.68,0-1,.05-4-1-9.76-6.23-9.44-4.65.29-9.14,4.05-12.44,7a103.23,103.23,0,0,0-11.82,12.73c-.59.74-1.69,1.94-2.69,3.28-1.79-2.75-3.64-5.51-6.36-7.36a11.69,11.69,0,0,0-13.7.59c-4.11,3.32-5.53,8.8-5.64,13.9-.05,2.07,1.25,10.07-1.27,10.4-2.09.28-4.18-.26-6.26-.2A13.91,13.91,0,0,0,303.94,271.29Z"></path><path class="cls-6" d="M349.45,254.6a1.2,1.2,0,0,1,2.34-.53l3.61,16,12.81-11.43-3.9-17.31a1.19,1.19,0,1,1,2.33-.52l3.61,16,14.21-12.67.06,0a1.2,1.2,0,0,1,1.59,1.79l-.06,0-14.21,12.68,15.5,5.41a1.2,1.2,0,0,1-.79,2.26l-16.75-5.86L357,271.87l15.5,5.42a1.19,1.19,0,1,1-.8,2.25L355,273.69q-6.9,6.15-13.8,12.31l15.49,5.41a1.2,1.2,0,0,1-.79,2.26l-16.75-5.85-15,13.4,15.5,5.42a1.19,1.19,0,0,1,.73,1.52,1.21,1.21,0,0,1-1.52.74L322,303l-13.41,12a1.2,1.2,0,0,1-1.59-1.79l13.41-11.95L316.53,284a1.2,1.2,0,0,1,2.34-.53l3.61,16,15-13.41-3.9-17.3a1.19,1.19,0,1,1,2.33-.53l3.61,16,13.81-12.31Z"></path><path class="cls-3" d="M317.2,133.07c-1.9,2.6-1.71,6.07-.9,9a37.65,37.65,0,0,0,4.36,9.81c1,1.62,2,3.3,3.09,4.84.48.65,1.81,1.88,1.71,2.77a1.55,1.55,0,0,0,.38,1.45,1.81,1.81,0,0,0,.33.29h0l.1.06,0,0,.05,0,.1.05h0a1.66,1.66,0,0,0,.42.12,1.52,1.52,0,0,0,1.42-.46c.78-.62,2.86-.05,3.78-.05,1.92,0,3.84.06,5.76,0a34.11,34.11,0,0,0,10.52-1.74c2.88-1,5.91-2.76,6.86-5.9a8.65,8.65,0,0,0-.06-5,12,12,0,0,1-.88-3.58c.05-1.3,5.43-1.75,6.61-2.11,3.05-.93,6.15-2.54,7.39-5.67a7.17,7.17,0,0,0-2-8.25,20.24,20.24,0,0,0-5.17-2.6,47.35,47.35,0,0,0,3.62-4.62,40.7,40.7,0,0,0,5.54-9.4c.82-2.16,2.27-5.41.27-7.41-1.55-1.56-4-1.29-6.3-.6.64-1,1.25-2,1.81-3,1.61-3,1.56-6.86-1.56-8.76a1.31,1.31,0,0,0-.28-.12,1.21,1.21,0,0,0-.25-.17c-3.36-1.64-6.7.53-8.32,3.57-.54,1-1.06,2-1.55,3.08-.06-.2-.12-.41-.19-.61-.81-2.37-2.64-5.53-5.64-4.25-2.68,1.14-4.53,4.3-5.86,6.74a64.46,64.46,0,0,0-4.29,10c-.2.57-.59,1.5-.9,2.5a15.56,15.56,0,0,0-5.28-3,7.32,7.32,0,0,0-7.94,3.22c-1.73,2.81-1.42,6.34-.42,9.36.41,1.23,2.85,5.67,1.43,6.39a37.59,37.59,0,0,1-3.73,1.19A8.68,8.68,0,0,0,317.2,133.07Z"></path><path class="cls-4" d="M340.5,113.73a.75.75,0,0,1,1.27-.8l5.47,8.67,5.16-9.41-5.92-9.37a.74.74,0,0,1,.23-1,.75.75,0,0,1,1,.23l5.48,8.68,5.71-10.43,0,0a.75.75,0,0,1,1.31.71.05.05,0,0,1,0,0l-5.71,10.43,10.25,0a.75.75,0,0,1,0,1.49l-11.08.06-5.16,9.41,10.26-.06a.75.75,0,0,1,0,1.5l-11.08.06L342.18,134l10.25,0a.75.75,0,0,1,0,1.49l-11.08.06-6.05,11,10.26,0a.75.75,0,1,1,0,1.49l-11.08.06-5.39,9.85a.75.75,0,0,1-1.31-.72l5.39-9.85-5.92-9.37a.75.75,0,0,1,1.27-.8l5.47,8.67q3-5.5,6.05-11l-5.92-9.37a.75.75,0,1,1,1.26-.8l5.48,8.67,5.55-10.13Z"></path><polygon class="cls-7" points="98.32 17.93 89.48 17.93 97.19 0 106.03 0 98.32 17.93"></polygon><polygon class="cls-7" points="111.14 17.93 102.31 17.93 110.01 0 118.85 0 111.14 17.93"></polygon><polygon class="cls-7" points="123.97 17.93 115.13 17.93 122.83 0 131.67 0 123.97 17.93"></polygon><polygon class="cls-8" points="136.78 17.92 127.94 17.92 135.65 0 144.49 0 136.78 17.92"></polygon><polygon class="cls-8" points="149.61 17.93 140.77 17.93 148.47 0 157.31 0 149.61 17.93"></polygon><polygon class="cls-8" points="162.43 17.93 153.59 17.93 161.29 0 170.13 0 162.43 17.93"></polygon><polygon class="cls-8" points="175.25 17.93 166.41 17.93 174.11 0 182.95 0 175.25 17.93"></polygon><path class="cls-9" d="M344.21,19.42h36.53a7.4,7.4,0,0,1,7.4,7.4V53.52a7.4,7.4,0,0,1-7.4,7.4H344.21a7.39,7.39,0,0,1-7.39-7.39V26.81A7.4,7.4,0,0,1,344.21,19.42Z"></path><rect class="cls-7" x="355.2" y="38.23" width="14.55" height="3.87"></rect><rect class="cls-7" x="360.55" y="32.89" width="3.87" height="14.55"></rect><path class="cls-7" d="M111.33,65.36V61.45h-5.64a8.25,8.25,0,0,0-.94-2.27l4-4L106,52.43l-4,4a8,8,0,0,0-2.28-1V49.84h-3.9v5.63a7.92,7.92,0,0,0-2.28,1l-4-4-2.76,2.76,4,4a8.25,8.25,0,0,0-.94,2.27H84.19v3.91h5.64a8.25,8.25,0,0,0,.94,2.27l-4,4,2.76,2.76,4-4a7.92,7.92,0,0,0,2.28,1V77h3.9V71.34a8,8,0,0,0,2.28-1l4,4,2.76-2.76-4-4a8.12,8.12,0,0,0,.94-2.27ZM97.76,67.12a3.72,3.72,0,1,1,3.72-3.71A3.72,3.72,0,0,1,97.76,67.12Z"></path><path class="cls-3" d="M220.82,12.44V10.1h-3.38a5,5,0,0,0-.57-1.37l2.39-2.39L217.6,4.68l-2.39,2.4a4.73,4.73,0,0,0-1.37-.57V3.13H211.5V6.51a4.73,4.73,0,0,0-1.37.57l-2.39-2.4-1.66,1.66,2.4,2.39a4.73,4.73,0,0,0-.57,1.37h-3.38v2.34h3.38a4.73,4.73,0,0,0,.57,1.37l-2.4,2.39,1.66,1.66,2.39-2.39a5,5,0,0,0,1.37.56v3.39h2.34V16a5,5,0,0,0,1.37-.56l2.39,2.39,1.66-1.66-2.39-2.39a5.36,5.36,0,0,0,.57-1.37Zm-8.15,1.06a2.23,2.23,0,1,1,2.23-2.23A2.23,2.23,0,0,1,212.67,13.5Z"></path><path class="cls-10" d="M310.14,39.93H143.27a11.82,11.82,0,0,0-2.74.34l-.44-1.86-4.44,4.43a12,12,0,0,0-.94.95l-.1.09h0a11.42,11.42,0,0,0-2.8,7.5V340.55A11.46,11.46,0,0,0,143.27,352H310.14a11.46,11.46,0,0,0,11.46-11.46V51.39A11.46,11.46,0,0,0,310.14,39.93Z"></path><rect class="cls-11" x="136.22" y="35.52" width="189.8" height="312.08" rx="11.46"></rect><path class="cls-12" d="M264.25,55.5A2.48,2.48,0,0,1,261.78,58H198.9a2.47,2.47,0,0,1-2.46-2.47h0A2.46,2.46,0,0,1,198.9,53h62.88a2.47,2.47,0,0,1,2.47,2.46Z"></path><path class="cls-12" d="M282.39,55.5a4.33,4.33,0,1,1-4.32-4.32A4.33,4.33,0,0,1,282.39,55.5Z"></path><rect class="cls-13" x="67.32" y="90.23" width="134.48" height="64.11" rx="9.92"></rect><rect class="cls-14" x="70.63" y="86.92" width="134.48" height="64.11" rx="9.92"></rect><path class="cls-12" d="M101.42,118.77l18-9.15v5L106.52,121l12.94,6.49v5.05l-18-9.28Z"></path><path class="cls-12" d="M131.83,134.19l10.89-29.55h4.68l-10.86,29.55Z"></path><path class="cls-12" d="M177.8,123.35l-18,9.14v-5.06l12.94-6.3-12.94-6.49v-5l18,9.28Z"></path><rect class="cls-15" x="221.87" y="81.11" width="91.89" height="5.9"></rect><rect class="cls-15" x="274.97" y="92.02" width="38.79" height="5.91"></rect><rect class="cls-15" x="298.03" y="120.63" width="15.73" height="5.9"></rect><rect class="cls-15" x="245.84" y="103.93" width="67.92" height="5.91"></rect><rect class="cls-15" x="225.95" y="120.63" width="61.59" height="5.9"></rect><polyline class="cls-16" points="246 144.24 246 186.13 179.94 186.13 179.94 226.92"></polyline><polyline class="cls-16" points="266.39 289.65 266.39 244.35 225.61 244.35"></polyline><rect class="cls-17" x="107.32" y="213.27" width="119.04" height="64.11" rx="9.92"></rect><rect class="cls-18" x="110.63" y="209.95" width="119.04" height="64.11" rx="9.92"></rect><path class="cls-12" d="M156.23,247.56c-.92,4.28-4.15,7.4-9.89,7.4-7.28,0-10.72-5.15-10.72-11.68,0-6.29,3.55-11.92,11-11.92,6.11,0,9.07,3.58,9.63,7.42h-5a4.5,4.5,0,0,0-4.83-3.53c-4.09,0-5.67,3.68-5.67,7.86,0,3.87,1.37,8,5.8,8a4.56,4.56,0,0,0,4.69-3.51Z"></path><path class="cls-12" d="M178.24,235.86v7.34h7.2v4h-7.2v7.46h-4v-7.46H167v-4h7.27v-7.34Z"></path><path class="cls-12" d="M208.53,235.86v7.34h7.19v4h-7.19v7.46h-4v-7.46h-7.28v-4h7.28v-7.34Z"></path><rect class="cls-19" x="278.29" y="207.53" width="22.5" height="20.53"></rect><rect class="cls-12" x="288.09" y="222.73" width="2.25" height="3.81"></rect><rect class="cls-12" x="288.09" y="215.9" width="2.25" height="3.81"></rect><rect class="cls-12" x="288.09" y="209.09" width="2.25" height="3.81"></rect><rect class="cls-19" x="278.29" y="228.06" width="22.5" height="20.53"></rect><rect class="cls-12" x="288.09" y="243.26" width="2.25" height="3.81"></rect><rect class="cls-12" x="288.09" y="236.43" width="2.25" height="3.81"></rect><rect class="cls-12" x="288.09" y="229.62" width="2.25" height="3.81"></rect><rect class="cls-19" x="278.29" y="248.59" width="22.5" height="20.53"></rect><rect class="cls-12" x="288.09" y="263.8" width="2.25" height="3.81"></rect><rect class="cls-12" x="288.09" y="256.96" width="2.25" height="3.81"></rect><rect class="cls-12" x="288.09" y="250.15" width="2.25" height="3.81"></rect><rect class="cls-19" x="278.29" y="269.12" width="22.5" height="20.53"></rect><rect class="cls-12" x="288.09" y="284.33" width="2.25" height="3.81"></rect><rect class="cls-12" x="288.09" y="277.49" width="2.25" height="3.81"></rect><rect class="cls-12" x="288.09" y="270.68" width="2.25" height="3.81"></rect><rect class="cls-20" x="271.53" y="156.83" width="134.48" height="64.11" rx="9.92"></rect><rect class="cls-21" x="274.84" y="153.52" width="134.49" height="64.11" rx="9.92"></rect><path class="cls-12" d="M306,189.56c0,4.52-1.47,6.57-5.76,6.57a13,13,0,0,1-2.66-.24v-3.37a16.72,16.72,0,0,0,1.94.11c1.94,0,2.23-1.3,2.23-2.79v-13.6H306Z"></path><path class="cls-12" d="M319.53,191.32,318,195.85h-4.17l6.66-19.61h5.33l6.94,19.61H328.3l-1.61-4.53Zm6.25-3.48c-1.39-4.13-2.28-6.78-2.75-8.54h0c-.48,1.93-1.46,5-2.58,8.54Z"></path><path class="cls-12" d="M344,195.85,337,176.24h4.55l2.92,9.06c.88,2.74,1.56,5.06,2,7.07h.06a72.14,72.14,0,0,1,2.1-7l3.06-9.12h4.32L349,195.85Z"></path><path class="cls-12" d="M365.84,191.32l-1.53,4.53h-4.17l6.66-19.61h5.33l6.95,19.61h-4.46L373,191.32Zm6.25-3.48c-1.39-4.13-2.28-6.78-2.75-8.54h0c-.48,1.93-1.46,5-2.58,8.54Z"></path><rect class="cls-19" x="169.04" y="164.86" width="18.08" height="22.5"></rect><rect class="cls-12" x="182.43" y="175.32" width="3.36" height="2.25"></rect><rect class="cls-12" x="176.41" y="175.32" width="3.36" height="2.25"></rect><rect class="cls-12" x="170.41" y="175.32" width="3.36" height="2.25"></rect><rect class="cls-19" x="187.12" y="164.86" width="18.08" height="22.5"></rect><rect class="cls-12" x="200.5" y="175.32" width="3.36" height="2.25"></rect><rect class="cls-12" x="194.49" y="175.32" width="3.36" height="2.25"></rect><rect class="cls-12" x="188.49" y="175.32" width="3.36" height="2.25"></rect><rect class="cls-19" x="205.2" y="164.86" width="18.08" height="22.5"></rect><rect class="cls-12" x="218.58" y="175.32" width="3.36" height="2.25"></rect><rect class="cls-12" x="212.56" y="175.32" width="3.36" height="2.25"></rect><rect class="cls-12" x="206.56" y="175.32" width="3.36" height="2.25"></rect><rect class="cls-19" x="158.9" y="180.52" width="22.5" height="22.05"></rect><rect class="cls-12" x="169.35" y="182.15" width="2.25" height="4.09"></rect><rect class="cls-12" x="169.35" y="189.49" width="2.25" height="4.09"></rect><rect class="cls-12" x="169.35" y="196.81" width="2.25" height="4.09"></rect><rect class="cls-15" x="165.71" y="299.4" width="137.06" height="20.77"></rect><text class="cls-22" transform="translate(182.16 314.29)">C<tspan class="cls-23" x="9.65" y="0">ONNE</tspan><tspan class="cls-24" x="51.55" y="0">C</tspan><tspan class="cls-25" x="61.82" y="0">TED</tspan></text><path class="cls-7" d="M247,8.54h3.88c2,0,3.35,1.12,3.35,2.91,0,2-1.55,3-3.4,3H249v3.5h-2Zm2,4.27h1.54c.94,0,1.61-.37,1.61-1.32s-.7-1.33-1.56-1.33H249Z"></path><path class="cls-7" d="M260.67,17.92V14.61a.54.54,0,0,0-.08-.3l-3.24-5.77h2.3c.72,1.42,1.66,3.3,2.13,4.32.41-1,1.44-3,2.15-4.32h2.12l-3.28,5.74a.44.44,0,0,0-.07.3v3.34Z"></path><path class="cls-7" d="M272.29,10.2h-2.85V8.54h7.72V10.2h-2.84v7.72h-2Z"></path><path class="cls-7" d="M281.14,8.54h2V12.2h3.77V8.54h2v9.38h-2V13.86h-3.77v4.06h-2Z"></path><path class="cls-7" d="M302.57,13.2c0,2.61-1.57,4.86-4.62,4.86s-4.48-2.14-4.48-4.83,1.7-4.83,4.61-4.83C300.83,8.4,302.57,10.33,302.57,13.2Zm-7,0c0,1.83.81,3.22,2.47,3.22s2.44-1.51,2.44-3.18-.72-3.17-2.47-3.17S295.56,11.37,295.56,13.19Z"></path><path class="cls-7" d="M307.06,17.92V8.54h2.52c1.17,2.11,3.34,5.91,3.77,6.93h0c-.1-1-.1-2.61-.1-4.15V8.54h1.84v9.38h-2.39c-1-1.83-3.41-6.19-3.87-7.28h0c.07.82.09,2.75.09,4.43v2.85Z"></path><path class="cls-26" d="M400.06,123.91a4.94,4.94,0,1,1-4.94-4.93A4.94,4.94,0,0,1,400.06,123.91Z"></path><path class="cls-27" d="M420.15,84.07a3.61,3.61,0,1,1-3.61-3.61A3.61,3.61,0,0,1,420.15,84.07Z"></path><path class="cls-27" d="M61,42.1a3.61,3.61,0,1,1-3.61-3.61A3.61,3.61,0,0,1,61,42.1Z"></path></g></g></g></svg>