<svg xmlns="http://www.w3.org/2000/svg" width="100" height="100" viewBox="0 0 100 100" fill="none"><circle cx="50" cy="50" r="50" fill="white"></circle><path d="M59.3333 78H40.6667M59.3333 78V51.8653C59.3333 51.3702 59.1367 50.8954 58.7866 50.5453C58.4365 50.1952 57.9617 49.9985 57.4667 49.9985H42.5333C42.0383 49.9985 41.5635 50.1952 41.2134 50.5453C40.8633 50.8954 40.6667 51.3702 40.6667 51.8653V78M59.3333 78H76.1333C76.6284 78 77.1032 77.8033 77.4533 77.4532C77.8033 77.1032 78 76.6283 78 76.1332V68.9773C78 68.4822 77.8033 68.0074 77.4533 67.6573C77.1032 67.3072 76.6284 67.1105 76.1333 67.1105H61.2C60.7049 67.1105 60.2301 67.3072 59.8801 67.6573C59.53 68.0074 59.3333 68.4822 59.3333 68.9773V78ZM40.6667 78V62.7547C40.6667 62.2596 40.47 61.7848 40.1199 61.4347C39.7699 61.0847 39.2951 60.888 38.8 60.888H23.8667C23.3716 60.888 22.8968 61.0847 22.5467 61.4347C22.1967 61.7848 22 62.2596 22 62.7547V76.1332C22 76.6283 22.1967 77.1032 22.5467 77.4532C22.8968 77.8033 23.3716 78 23.8667 78H40.6667ZM46.2853 28.5711L49.1133 22.5757C49.1897 22.4043 49.3141 22.2587 49.4714 22.1566C49.6288 22.0544 49.8124 22 50 22C50.1876 22 50.3712 22.0544 50.5286 22.1566C50.6859 22.2587 50.8103 22.4043 50.8867 22.5757L53.7178 28.5711L60.0396 29.5387C60.8516 29.6632 61.1751 30.7086 60.5871 31.306L56.0138 35.9729L57.0933 42.5626C57.2302 43.4088 56.384 44.056 55.656 43.6546L50 40.5433L44.344 43.6546C43.6191 44.0529 42.7698 43.4088 42.9067 42.5626L43.9862 35.9729L39.4129 31.306C38.8218 30.7086 39.1484 29.6632 39.9573 29.5387L46.2853 28.5711Z" stroke="#FEC62E" stroke-width="3.5" stroke-linecap="round" stroke-linejoin="round"></path></svg>