<svg xmlns="http://www.w3.org/2000/svg" width="100" height="100" viewBox="0 0 100 100" fill="none"><circle cx="50" cy="50" r="50" fill="white"></circle><path d="M34 18H66V43.5125C66 44.7583 65.7333 45.8687 65.2 46.8438C64.6667 47.8188 63.92 48.6042 62.96 49.2L51.6 56.025L53.84 63.5H66L56.08 70.65L59.92 83L50 75.3625L40.08 83L43.92 70.65L34 63.5H46.16L48.4 56.025L37.04 49.2C36.08 48.6042 35.3333 47.8188 34.8 46.8438C34.2667 45.8687 34 44.7583 34 43.5125V18ZM40.4 24.5V43.5125L46.8 47.4125V24.5H40.4ZM59.6 24.5H53.2V47.4125L59.6 43.5125V24.5Z" fill="#FEC62E"></path></svg>