<svg xmlns="http://www.w3.org/2000/svg" width="100" height="100" viewBox="0 0 100 100" fill="none"><circle cx="50" cy="50" r="50" fill="white"></circle><path d="M42.5 33L47.5 28M37.5 60.5L57.5 40.5M47.5 73L52.5 68M58.75 68C60.4076 68 61.9973 67.3415 63.1694 66.1694C64.3415 64.9973 65 63.4076 65 61.75C65 60.0924 64.3415 58.5027 63.1694 57.3306C61.9973 56.1585 60.4076 55.5 58.75 55.5C57.0924 55.5 55.5027 56.1585 54.3306 57.3306C53.1585 58.5027 52.5 60.0924 52.5 61.75C52.5 63.4076 53.1585 64.9973 54.3306 66.1694C55.5027 67.3415 57.0924 68 58.75 68ZM36.25 45.5C37.9076 45.5 39.4973 44.8415 40.6694 43.6694C41.8415 42.4973 42.5 40.9076 42.5 39.25C42.5 37.5924 41.8415 36.0027 40.6694 34.8306C39.4973 33.6585 37.9076 33 36.25 33C34.5924 33 33.0027 33.6585 31.8306 34.8306C30.6585 36.0027 30 37.5924 30 39.25C30 40.9076 30.6585 42.4973 31.8306 43.6694C33.0027 44.8415 34.5924 45.5 36.25 45.5ZM31.25 73C32.9076 73 34.4973 72.3415 35.6694 71.1694C36.8415 69.9973 37.5 68.4076 37.5 66.75C37.5 65.0924 36.8415 63.5027 35.6694 62.3306C34.4973 61.1585 32.9076 60.5 31.25 60.5C29.5924 60.5 28.0027 61.1585 26.8306 62.3306C25.6585 63.5027 25 65.0924 25 66.75C25 68.4076 25.6585 69.9973 26.8306 71.1694C28.0027 72.3415 29.5924 73 31.25 73ZM63.75 40.5C65.4076 40.5 66.9973 39.8415 68.1694 38.6694C69.3415 37.4973 70 35.9076 70 34.25C70 32.5924 69.3415 31.0027 68.1694 29.8306C66.9973 28.6585 65.4076 28 63.75 28C62.0924 28 60.5027 28.6585 59.3306 29.8306C58.1585 31.0027 57.5 32.5924 57.5 34.25C57.5 35.9076 58.1585 37.4973 59.3306 38.6694C60.5027 39.8415 62.0924 40.5 63.75 40.5Z" stroke="#FEC62E" stroke-width="4" stroke-linecap="round" stroke-linejoin="round"></path></svg>